<?xml version="1.0" encoding="UTF-8"?><svg id="Layer_1" xmlns="http://www.w3.org/2000/svg" viewBox="0 0 449.26 298.27"><defs><style>.cls-1{letter-spacing:.05em;}.cls-2{letter-spacing:-.02em;}.cls-3{letter-spacing:0em;}.cls-4{letter-spacing:0em;}.cls-5{letter-spacing:0em;}.cls-6{letter-spacing:.04em;}.cls-7{letter-spacing:.05em;}.cls-8{letter-spacing:-.02em;}.cls-9{letter-spacing:.05em;}.cls-10{stroke-linejoin:round;stroke-width:1.25px;}.cls-10,.cls-11{fill:none;stroke:#000;}.cls-12{font-size:20.04px;}.cls-12,.cls-13{font-family:TwCenMT-Regular, 'Tw Cen MT';}.cls-14{fill:#1cade4;}.cls-14,.cls-15,.cls-16,.cls-17,.cls-18,.cls-19,.cls-20,.cls-21,.cls-22{stroke-width:0px;}.cls-14,.cls-15,.cls-22{fill-rule:evenodd;}.cls-15,.cls-19{fill:#fff;}.cls-11{opacity:0;stroke-miterlimit:10;stroke-width:.14px;}.cls-23{letter-spacing:.06em;}.cls-24{letter-spacing:.05em;}.cls-13{fill:#0d0d0d;font-size:18.02px;}.cls-17{fill:#7030a0;}.cls-18{fill:#3e8853;}.cls-20{fill:red;}.cls-21{fill:#002060;}.cls-25{letter-spacing:0em;}</style></defs><path class="cls-22" d="m219.75,37.02c0-1.23.86-2.22,1.92-2.22s1.92.99,1.92,2.22-.86,2.22-1.92,2.22-1.92-.99-1.92-2.22Z"/><path class="cls-10" d="m219.75,37.02c0-1.23.86-2.22,1.92-2.22s1.92.99,1.92,2.22-.86,2.22-1.92,2.22-1.92-.99-1.92-2.22Z"/><polygon class="cls-14" points=".62 236.64 112.34 112.44 411.99 112.44 300.27 236.64 .62 236.64"/><polygon class="cls-10" points=".62 236.64 112.34 112.44 411.99 112.44 300.27 236.64 .62 236.64"/><text class="cls-13" transform="translate(143.89 252)"><tspan class="cls-9" x="0" y="0">CHA</tspan><tspan class="cls-1" x="35.58" y="0">R</tspan><tspan class="cls-9" x="45.51" y="0">GED</tspan><tspan class="cls-23" x="81.11" y="0"> </tspan><tspan class="cls-24" x="87.09" y="0">O</tspan><tspan class="cls-1" x="101.94" y="0">B</tspan><tspan class="cls-24" x="111.87" y="0">J</tspan><tspan class="cls-7" x="119.76" y="0">EC</tspan><tspan class="cls-25" x="140.49" y="0">T</tspan></text><rect class="cls-11" x="263.43" y="201.84" width="40.8" height="32.28"/><text class="cls-12" transform="translate(243.2 35.06)"><tspan x="0" y="0">Obs</tspan><tspan class="cls-3" x="33.18" y="0">e</tspan><tspan class="cls-6" x="43.28" y="0">r</tspan><tspan class="cls-8" x="50.68" y="0">v</tspan><tspan class="cls-5" x="59.09" y="0">a</tspan><tspan x="70.03" y="0">tion</tspan><tspan class="cls-2" x="98.65" y="0"> </tspan><tspan x="103.78" y="0">po</tspan><tspan class="cls-4" x="124.86" y="0">i</tspan><tspan x="129.29" y="0">nt</tspan></text><path class="cls-19" d="m279.49,218.32c-.63.91-1.22,1.58-1.78,2.01-.56.42-1.15.64-1.78.64-.72,0-1.27-.27-1.67-.81-.39-.54-.59-1.3-.59-2.28,0-1.12.22-2.2.66-3.23.44-1.03,1.05-1.85,1.82-2.45.77-.6,1.63-.9,2.57-.9.4,0,.76.04,1.1.12.34.08.68.22,1.03.43l.51-2.26c.05-.22.1-.45.14-.71.04-.26.06-.49.06-.68s-.04-.34-.11-.45c-.07-.1-.17-.17-.31-.22-.13-.05-.37-.08-.72-.1l.12-.51,2.46-.09h.58l-2.44,10.83c-.14.64-.22,1.12-.22,1.45,0,.26.04.45.13.57.08.12.22.18.4.18.2,0,.4-.08.63-.24.22-.16.53-.46.94-.91l.56.55c-.6.63-1.11,1.08-1.52,1.34s-.85.39-1.33.39c-.4,0-.73-.13-.97-.4-.24-.27-.36-.62-.36-1.07,0-.36.07-.74.23-1.14l-.13-.04Zm.66-3.46c.1-.47.15-.91.15-1.33,0-.51-.11-.88-.32-1.11-.22-.23-.57-.35-1.08-.35-.67,0-1.26.27-1.79.81-.53.54-.94,1.26-1.25,2.18-.3.91-.46,1.82-.46,2.73,0,.68.09,1.19.28,1.52.19.34.5.5.93.5.2,0,.41-.04.62-.13.21-.09.43-.23.65-.43.23-.2.45-.43.67-.71.22-.28.42-.56.6-.85.18-.28.35-.62.51-1.01.16-.39.29-.86.4-1.4l.09-.42Zm10.85,3.69c-.56.79-1.13,1.39-1.72,1.8-.58.41-1.15.62-1.71.62-.72,0-1.27-.27-1.67-.81-.39-.54-.59-1.3-.59-2.28,0-1.12.22-2.2.66-3.23.44-1.03,1.05-1.85,1.82-2.45.77-.6,1.63-.9,2.57-.9.4,0,.79.05,1.15.14.37.09.74.26,1.14.5l.9-.65.63.16-2.51,11.13c-.11.5-.17.87-.17,1.12,0,.29.07.49.22.61.15.12.44.2.87.24l-.09.48h-3.05l1.68-6.42-.14-.06Zm.79-3.69c.1-.47.15-.91.15-1.33,0-.51-.11-.88-.32-1.11-.22-.23-.57-.35-1.08-.35-.67,0-1.26.27-1.79.81-.53.54-.94,1.26-1.25,2.18-.3.91-.46,1.82-.46,2.73,0,.68.09,1.19.28,1.52.19.34.5.5.93.5.2,0,.41-.04.62-.13.21-.09.43-.23.65-.43.23-.2.45-.43.67-.71.22-.28.42-.56.6-.85.18-.28.35-.62.51-1.01.16-.39.29-.86.4-1.4l.09-.42Z"/><polygon class="cls-15" points="246.75 217.8 258.73 204.48 275.54 204.48 263.57 217.8 246.75 217.8"/><polygon class="cls-10" points="246.75 217.8 258.73 204.48 275.54 204.48 263.57 217.8 246.75 217.8"/><path class="cls-16" d="m219.3,6.01l2.97-6.01,3.03,5.99-6,.02Zm2.5,1.15v-2.16s.99,0,.99,0v2.16s-.99,0-.99,0Zm.03,7l-.02-4h1l.02,4h-1Zm.03,7l-.02-4h1l.02,4h-1Zm.03,7l-.02-4h1l.02,4h-1Zm.03,7l-.02-4h1l.02,4h-1Zm.03,7l-.02-4h1l.02,4h-1Zm.03,7l-.02-4h1l.02,4h-1Zm.03,7v-4s.99,0,.99,0v4s-.99,0-.99,0Zm.03,7v-4s.99,0,.99,0v4s-.99,0-.99,0Zm.03,7v-4s.99,0,.99,0v4s-.99,0-.99,0Zm.03,7v-4s.99,0,.99,0v4s-.99,0-.99,0Zm.03,7v-4s.99,0,.99,0v4s-.99,0-.99,0Zm.03,7v-4s.99,0,.99,0v4s-.99,0-.99,0Zm.03,7v-4s.99,0,.99,0v4s-.99,0-.99,0Zm.03,7v-4s.99,0,.99,0v4s-.99,0-.99,0Zm.03,7v-4s.99,0,.99,0v4s-.99,0-.99,0Zm.03,7v-4s.99,0,.99,0v4s-.99,0-.99,0Zm.03,7v-4s.99,0,.99,0v4s-.99,0-.99,0Zm.03,7v-4s.99,0,.99,0v4s-.99,0-.99,0Zm.03,7v-4s.99,0,.99,0v4s-.99,0-.99,0Zm.04,7l-.02-4h1l.02,4h-1Zm.03,7l-.02-4h1l.02,4h-1Zm.03,7l-.02-4h1l.02,4h-1Zm.03,7l-.02-4h1l.02,4h-1Zm.03,7l-.02-4h1l.02,4h-1Zm.03,7l-.02-4h1l.02,4h-1Zm.03,7l-.02-4h1l.02,4h-1Zm.03,7l-.02-4h1l.02,4h-1Zm.03,7l-.02-4h1l.02,4h-1Zm.03,7l-.02-4h1l.02,4h-1Zm.03,7l-.02-4h1l.02,4h-1Zm.03,7l-.02-4h1l.02,4h-1Zm.03,7l-.02-4h1l.02,4h-1Zm.03,7l-.02-4h1l.02,4h-1Zm.03,7l-.02-4h1l.02,4h-1Zm.03,7l-.02-4h1l.02,4h-1Zm.03,7l-.02-4h1l.02,4h-1Zm.03,7l-.02-4h1l.02,4h-1Zm.03,7l-.02-4h1l.02,4h-1Zm.03,7l-.02-4h1l.02,4h-1Zm.03,7l-.02-4h1l.02,4h-1Z"/><path class="cls-16" d="m433.5,162.6l6,3-6,3v-6Zm-1.03,2.5h2.03v1h-2.03v-1Zm-7,0h4v1h-4v-1Zm-7,0h4v1h-4v-1Zm-7,0h4v1h-4v-1Zm-7,0h4v1h-4v-1Zm-7,0h4v1h-4v-1Zm-7,0h4v1h-4v-1Zm-7,0h4v1h-4v-1Zm-7,0h4v1h-4v-1Zm-7,0h4v1h-4v-1Zm-7,0h4v1h-4v-1Zm-7,0h4v1h-4v-1Zm-7,0h4v1h-4v-1Zm-7,0h4v1h-4v-1Zm-7,0h4v1h-4v-1Zm-7,0h4v1h-4v-1Zm-7,0h4v1h-4v-1Zm-7,0h4v1h-4v-1Zm-7,0h4v1h-4v-1Zm-7,0h4v1h-4v-1Zm-7,0h4v1h-4v-1Zm-7,0h4v1h-4v-1Zm-7,0h4v1h-4v-1Zm-7,0h4v1h-4v-1Zm-7,0h4v1h-4v-1Zm-7,0h4v1h-4v-1Zm-7,0h4v1h-4v-1Zm-7,0h4v1h-4v-1Zm-7,0h4v1h-4v-1Zm-7,0h4v1h-4v-1Zm-7,0h4v1h-4v-1Zm-7,0h4v1h-4v-1Zm-7,0h4v1h-4v-1Zm-7,0h4v1h-4v-1Zm-7,0h4v1h-4v-1Zm-7,0h4v1h-4v-1Zm-7,0h4v1h-4v-1Zm-7,0h4v1h-4v-1Zm-7,0h4v1h-4v-1Zm-7,0h4v1h-4v-1Zm-7,0h4v1h-4v-1Zm-7,0h4v1h-4v-1Zm-7,0h4v1h-4v-1Zm-7,0h4v1h-4v-1Zm-7,0h4v1h-4v-1Zm-7,0h4v1h-4v-1Zm-7,0h4v1h-4v-1Zm-7,0h4v1h-4v-1Zm-7,0h4v1h-4v-1Zm-7,0h4v1h-4v-1Zm-7,0h4v1h-4v-1Zm-7,0h4v1h-4v-1Zm-7,0h4v1h-4v-1Zm-7,0h4v1h-4v-1Z"/><rect class="cls-11" x="426.63" y="165.6" width="22.56" height="27.12"/><path class="cls-16" d="m437.28,182.76c-.17-1.03-.4-2.26-.69-3.71-.31-1.55-.52-2.5-.62-2.87-.12-.45-.25-.73-.39-.85-.08-.08-.18-.11-.31-.11-.19,0-.36.08-.53.23-.16.15-.37.42-.61.79l-.57-.38c.4-.6.78-1.03,1.13-1.28.35-.25.74-.37,1.18-.37.24,0,.45.03.62.1.12.05.23.12.35.23.12.11.22.26.31.45.09.19.17.41.24.65.07.24.14.59.22,1.04.14.76.28,1.55.41,2.39s.24,1.61.34,2.32c.57-.82,1.05-1.62,1.45-2.41.4-.79.68-1.47.85-2.05.17-.58.26-1.05.26-1.42,0-.28-.06-.46-.18-.56-.12-.1-.32-.16-.6-.18l.09-.43h2.31l.24.44c-.45,1.22-1.05,2.52-1.81,3.91-.75,1.36-1.61,2.71-2.58,4.06-.93,1.28-1.7,2.21-2.31,2.79-.43.39-.84.67-1.24.84-.32.13-.65.19-1.01.19-.12,0-.27-.01-.43-.03-.16-.02-.29-.05-.37-.08l.38-1.71h.69c0,.37.13.56.39.56.34,0,.74-.21,1.19-.64.45-.42.98-1.06,1.59-1.92Z"/><path class="cls-16" d="m140.62,271.55l-1.15,6.61,5.98-3.05-4.83-3.56Zm4.2-1.48l-2.38,3.22.81.59,2.37-3.22-.8-.59Zm4.15-5.63l-2.37,3.21.8.6,2.38-3.22-.81-.59Zm4.16-5.64l-2.37,3.22.8.59,2.37-3.21-.8-.6Zm4.16-5.63l-2.38,3.22.81.59,2.37-3.22-.8-.59Zm4.15-5.63l-2.37,3.22.8.59,2.38-3.22-.81-.59Zm4.16-5.64l-2.38,3.22.81.6,2.37-3.22-.8-.6Zm4.15-5.63l-2.37,3.22.8.59,2.38-3.22-.81-.59Zm4.16-5.63l-2.38,3.22.81.59,2.37-3.22-.8-.59Zm4.15-5.63l-2.37,3.21.8.6,2.38-3.22-.81-.59Zm4.16-5.64l-2.37,3.22.8.59,2.38-3.21-.81-.6Zm4.16-5.63l-2.38,3.22.81.59,2.37-3.22-.8-.59Zm4.15-5.63l-2.37,3.22.8.59,2.38-3.22-.81-.59Zm4.16-5.64l-2.38,3.22.81.6,2.37-3.22-.8-.6Zm4.15-5.63l-2.37,3.22.8.59,2.38-3.22-.81-.59Zm4.16-5.63l-2.38,3.22.81.59,2.37-3.22-.8-.59Zm4.16-5.64l-2.38,3.22.81.6,2.37-3.22-.8-.6Zm4.15-5.63l-2.37,3.22.8.59,2.38-3.21-.81-.6Zm4.16-5.63l-2.38,3.22.81.59,2.37-3.22-.8-.59Zm4.15-5.63l-2.37,3.22.8.59,2.38-3.22-.81-.59Zm4.16-5.64l-2.38,3.22.81.6,2.37-3.22-.8-.6Zm4.15-5.63l-2.37,3.22.8.59,2.38-3.22-.81-.59Zm4.16-5.63l-2.37,3.22.8.59,2.37-3.22-.8-.59Zm4.16-5.64l-2.38,3.22.81.6,2.37-3.22-.8-.6Zm4.15-5.63l-2.37,3.22.8.59,2.38-3.21-.81-.6Zm4.16-5.63l-2.38,3.22.81.59,2.37-3.22-.8-.59Zm4.15-5.63l-2.37,3.21.8.6,2.38-3.22-.81-.59Zm4.16-5.64l-2.38,3.22.81.6,2.37-3.22-.8-.6Zm4.15-5.63l-2.37,3.22.8.59,2.38-3.22-.81-.59Zm4.16-5.63l-2.37,3.22.8.59,2.38-3.22-.81-.59Zm4.16-5.64l-2.38,3.22.81.6,2.37-3.22-.8-.6Zm4.15-5.63l-2.37,3.22.8.59,2.38-3.21-.81-.6Zm4.16-5.63l-2.38,3.22.81.59,2.37-3.22-.8-.59Zm4.15-5.63l-2.37,3.21.8.6,2.38-3.22-.81-.59Zm4.16-5.64l-2.38,3.22.81.6,2.37-3.22-.8-.6Z"/><rect class="cls-11" x="128.07" y="276.36" width="18.36" height="21.84"/><path class="cls-16" d="m136.65,289.54c-.09-.46-.18-.91-.27-1.34-.09-.43-.19-.83-.29-1.2-.1-.37-.18-.61-.25-.73-.06-.11-.13-.19-.21-.24-.07-.04-.17-.07-.28-.07-.12,0-.23.03-.33.08-.1.06-.21.15-.33.29-.12.14-.27.35-.47.65l-.57-.38c.37-.56.72-.97,1.06-1.25.34-.28.74-.41,1.21-.41.18,0,.34.02.48.06.14.04.26.1.37.19.11.09.2.2.28.33.08.14.16.32.24.55.08.23.15.52.22.86.07.34.13.7.18,1.07h.09c.56-.79.99-1.37,1.28-1.74.29-.37.54-.64.73-.82.2-.18.39-.31.58-.38.18-.07.43-.11.73-.11.28,0,.5.04.68.11l-.35,1.59h-.62c-.04-.25-.14-.37-.31-.37-.05,0-.11,0-.17.03-.06.02-.13.06-.22.11-.09.06-.21.17-.37.34-.16.17-.35.38-.55.62-.21.25-.42.5-.63.77l-.6.75c.11.56.21,1.05.3,1.46.09.41.18.75.25,1.03.07.27.14.49.19.65.06.16.12.28.18.36.06.08.13.14.2.17.07.03.15.05.23.05.16,0,.31-.06.46-.18.15-.12.37-.4.65-.84l.57.38c-.41.61-.78,1.04-1.11,1.29-.33.25-.73.37-1.18.37-.25,0-.47-.05-.64-.14-.18-.09-.33-.24-.46-.44-.13-.2-.24-.51-.34-.93-.18-.75-.29-1.33-.33-1.72h-.09c-.62.87-1.08,1.5-1.39,1.88-.3.38-.55.66-.75.84-.2.18-.39.31-.57.38s-.43.11-.73.11c-.28,0-.5-.04-.68-.11l.35-1.59h.62c.04.25.14.37.31.37.08,0,.17-.02.26-.07.09-.04.22-.15.39-.32.17-.17.4-.43.7-.79.3-.36.73-.89,1.3-1.61Z"/><rect class="cls-11" x="232.22" y="65.28" width="41.28" height="39.6"/><path class="cls-18" d="m246.07,89.92c.77-1.04,1.5-1.8,2.21-2.29.71-.48,1.42-.73,2.15-.73.57,0,1.05.04,1.43.13l-.56,2.62h-1.21c-.05-.33-.11-.58-.2-.76-.09-.18-.19-.3-.3-.38s-.27-.11-.45-.11c-.28,0-.59.12-.92.36-.33.24-.71.62-1.12,1.14-.41.52-.74,1.01-.99,1.49-.25.48-.45,1.08-.62,1.82l-1.11,5.07h-2.03l1.7-7.43c.11-.47.18-.83.21-1.09.03-.26.05-.47.05-.64,0-.31-.05-.54-.15-.68-.1-.14-.26-.21-.48-.21-.24,0-.5.1-.77.3s-.64.56-1.11,1.08l-.67-.66c.72-.75,1.32-1.28,1.8-1.6.48-.32,1.02-.47,1.61-.47.49,0,.88.16,1.17.49.29.32.43.75.43,1.27,0,.39-.07.79-.22,1.21l.15.06Zm6.39-7.29l-2.94,2.54-.62-.7,1.88-1.63h-7.15v-1.1h7.15l-1.88-1.63.62-.7,2.94,2.54v.68Z"/><path class="cls-18" d="m219.25,49.06l2.47-9.76,6.32,7.83-8.79,1.93Zm38.48,161.31l-35.87-163.42,2.93-.65,35.87,163.43-2.93.64Z"/><path class="cls-21" d="m200.84,205.2l-9,4.5,9,4.5v-9Zm58.38,3h-59.88v3h59.88v-3Z"/><rect class="cls-11" x="220.59" y="205.32" width="25.32" height="31.08"/><path class="cls-21" d="m229.85,217.35c.64-.87,1.26-1.51,1.85-1.91.59-.4,1.19-.61,1.8-.61.48,0,.88.04,1.2.11l-.47,2.19h-1.01c-.04-.27-.09-.49-.17-.64-.07-.15-.16-.25-.25-.31s-.22-.09-.37-.09c-.24,0-.49.1-.77.3-.28.2-.59.52-.94.95-.35.43-.62.85-.83,1.24-.21.4-.38.9-.51,1.52l-.93,4.24h-1.69l1.42-6.21c.09-.39.15-.7.18-.91.03-.22.04-.4.04-.54,0-.26-.04-.45-.13-.57-.08-.12-.22-.18-.4-.18-.2,0-.42.08-.64.25-.23.17-.53.47-.93.91l-.56-.55c.6-.63,1.1-1.07,1.51-1.34.4-.26.85-.4,1.34-.4.41,0,.74.14.97.41.24.27.36.63.36,1.06,0,.33-.06.66-.19,1.01l.13.05Z"/><path class="cls-21" d="m235.56,228.39c-.16-.91-.3-1.69-.42-2.35-.12-.66-.23-1.22-.33-1.69-.1-.47-.19-.84-.27-1.13-.08-.29-.16-.52-.24-.68-.08-.16-.15-.27-.23-.33-.08-.06-.16-.09-.25-.09-.09,0-.16.01-.24.03-.07.02-.15.07-.22.13-.08.07-.16.16-.25.28-.09.12-.2.28-.33.48l-.55-.36c.21-.3.39-.55.57-.75s.34-.36.51-.48c.17-.12.34-.2.52-.25.18-.05.37-.08.58-.08.17,0,.32.02.44.05.12.04.24.09.34.17.1.08.19.18.27.3.08.12.16.27.24.44.04.11.09.26.14.45.05.2.1.42.15.68.05.26.1.54.16.85.05.31.1.63.16.97.05.34.1.69.15,1.04.05.36.09.71.14,1.05.36-.47.68-.94.97-1.42.29-.48.53-.93.73-1.36.2-.43.35-.82.45-1.17.1-.35.16-.63.15-.84,0-.21-.05-.36-.16-.45-.11-.09-.29-.14-.55-.16l.09-.46h2.04l.25.42c-.48,1.18-1.03,2.32-1.67,3.41-.64,1.1-1.36,2.16-2.16,3.19-.35.42-.66.77-.94,1.07-.28.3-.54.56-.77.78-.24.22-.46.39-.66.53-.2.14-.4.25-.59.33-.19.08-.38.14-.57.18-.19.04-.39.06-.59.07-.11,0-.24-.01-.4-.04-.16-.02-.29-.05-.41-.09l.36-1.57h.65v.04c0,.32.13.49.39.49.35,0,.7-.13,1.06-.4.36-.27.79-.7,1.3-1.29Z"/><path class="cls-20" d="m222.02,175.6l1.56-9.94-8.89,4.72,7.33,5.22Zm-28.95,35.46l27.38-38.42-2.45-1.74-27.37,38.42,2.44,1.74Z"/><rect class="cls-11" x="179.91" y="170.64" width="23.76" height="26.76"/><path class="cls-20" d="m189.12,182.5c.64-.87,1.26-1.51,1.85-1.91.59-.4,1.19-.61,1.8-.61.48,0,.88.04,1.2.11l-.47,2.19h-1.01c-.04-.27-.09-.49-.17-.64-.07-.15-.16-.25-.25-.31s-.22-.09-.37-.09c-.24,0-.49.1-.77.3-.28.2-.59.52-.94.95-.35.43-.62.85-.83,1.24-.21.4-.38.9-.51,1.52l-.93,4.24h-1.69l1.42-6.21c.09-.39.15-.7.18-.91.03-.22.04-.4.04-.54,0-.26-.04-.45-.13-.57-.08-.12-.22-.18-.4-.18-.2,0-.42.08-.64.25-.23.17-.53.47-.93.91l-.56-.55c.6-.63,1.1-1.07,1.51-1.34.4-.26.85-.4,1.34-.4.41,0,.74.14.97.41.24.27.36.63.36,1.06,0,.33-.06.66-.19,1.01l.13.05Z"/><path class="cls-20" d="m194.68,190.13c-.09-.4-.16-.75-.23-1.05-.06-.3-.12-.55-.18-.76-.05-.21-.11-.39-.16-.52-.05-.13-.11-.24-.16-.32-.05-.08-.11-.13-.18-.17-.06-.03-.14-.05-.23-.06-.08,0-.16.01-.23.04-.07.03-.14.07-.21.14-.07.07-.16.16-.24.28-.09.12-.19.27-.3.47l-.55-.36c.2-.29.37-.54.53-.74.16-.2.31-.36.47-.48.15-.12.31-.21.48-.26.17-.05.36-.08.58-.08.26,0,.48.06.64.17.17.11.31.28.42.5.11.22.2.49.27.81s.15.69.23,1.11h.09c.29-.38.53-.7.74-.98.21-.28.4-.51.56-.7.16-.19.31-.35.44-.47.13-.12.26-.21.38-.28.12-.06.25-.11.38-.13.13-.02.28-.04.44-.04.24,0,.46.04.65.13l-.36,1.41h-.59c-.01-.21-.09-.31-.23-.31-.05,0-.11,0-.17.03-.06.02-.14.06-.22.11-.09.06-.19.14-.3.24-.11.1-.24.24-.4.4-.15.16-.33.37-.52.61-.2.24-.42.52-.67.84.13.66.24,1.19.33,1.58.09.4.18.7.27.91.09.21.17.35.26.41.09.06.18.1.29.1.08,0,.16,0,.23-.03.07-.02.14-.06.21-.13.07-.06.16-.16.25-.28.09-.12.2-.28.32-.48l.54.35c-.21.32-.4.57-.56.77-.16.2-.32.36-.47.47-.15.11-.31.19-.47.23-.16.04-.35.06-.56.06-.18,0-.34-.03-.49-.08-.14-.05-.27-.14-.37-.28-.07-.08-.14-.19-.2-.33-.06-.14-.12-.28-.17-.44-.05-.16-.1-.32-.14-.49-.04-.17-.08-.33-.11-.48-.03-.15-.05-.28-.07-.4-.02-.12-.03-.2-.03-.26h-.08c-.29.38-.54.71-.75,1-.21.28-.4.53-.58.73-.17.2-.33.37-.47.5-.14.13-.27.24-.41.31-.13.08-.27.13-.41.16-.14.03-.3.04-.47.04-.25,0-.46-.04-.64-.13l.33-1.4h.61c.01.21.09.32.24.32.05,0,.1-.01.15-.03.05-.01.11-.04.18-.09.07-.05.15-.12.25-.21.1-.1.23-.23.39-.41.16-.17.35-.39.58-.66.23-.26.5-.59.82-.97Z"/><path class="cls-17" d="m217.26,48.32l4.46-9.02,4.54,8.98-9,.04Zm3.54,118.82l-.55-120.33,3-.02.55,120.34h-3Z"/><rect class="cls-11" x="197.19" y="74.76" width="22.68" height="26.52"/><path class="cls-17" d="m206.4,86.62c.64-.87,1.25-1.5,1.84-1.91.59-.4,1.19-.61,1.8-.61.48,0,.87.04,1.19.11l-.47,2.19h-1.01c-.04-.27-.09-.49-.17-.64-.07-.15-.16-.25-.25-.31-.1-.06-.22-.09-.37-.09-.23,0-.49.1-.77.3-.28.2-.59.52-.93.95-.35.43-.62.84-.83,1.24-.21.4-.38.9-.51,1.52l-.93,4.24h-1.69l1.42-6.2c.09-.39.15-.69.18-.91.03-.22.04-.39.04-.54,0-.26-.04-.45-.13-.57-.08-.12-.22-.18-.4-.18-.2,0-.42.08-.64.25-.23.17-.53.47-.92.91l-.56-.55c.6-.63,1.1-1.07,1.51-1.34.4-.26.85-.4,1.34-.4.41,0,.74.14.97.41.24.27.36.62.36,1.06,0,.33-.06.66-.19,1.01l.13.05Z"/><path class="cls-17" d="m214.71,95.55l-.46,2.15h-5.68l-.19-.43c.46-.51.93-1.03,1.43-1.57.49-.54.98-1.08,1.46-1.6.48-.52.94-1.03,1.38-1.5.44-.48.84-.91,1.2-1.29-.02-.02-.03-.03-.04-.04h-1.84c-.21,0-.39.02-.54.05-.15.03-.28.1-.41.19-.12.1-.25.23-.36.4-.12.17-.26.4-.41.68h-.73l.44-2.04h5.56l.17.43c-.31.35-.61.68-.9.99-.28.31-.56.62-.84.93-.28.31-.56.61-.84.91-.28.3-.57.62-.87.94-.3.33-.61.67-.94,1.03-.33.36-.68.75-1.06,1.16.02.02.03.03.04.04h1.76c.18,0,.34,0,.47,0,.13,0,.25-.02.35-.04.1-.02.19-.06.28-.12.08-.05.17-.14.25-.24.08-.11.17-.24.26-.41.09-.17.2-.37.32-.62h.74Z"/></svg>