<?xml version="1.0" encoding="utf-8"?>
<!-- Generator: Adobe Illustrator 28.0.0, SVG Export Plug-In . SVG Version: 6.00 Build 0)  -->
<svg version="1.1" id="Layer_1" xmlns="http://www.w3.org/2000/svg" xmlns:xlink="http://www.w3.org/1999/xlink" x="0px" y="0px"
	 viewBox="0 0 607 423" style="enable-background:new 0 0 607 423;" xml:space="preserve">
<style type="text/css">
	.st0{fill:#1CADE4;}
	.st1{fill:none;stroke:#117EA7;stroke-width:1.25;stroke-linejoin:round;}
	.st2{font-family:'TwCenMT-Bold';}
	.st3{font-size:18px;}
	.st4{fill:none;stroke:#335B74;stroke-width:4.5;stroke-linejoin:round;stroke-dasharray:0,0,18,13.5;}
	.st5{fill:none;stroke:#000000;stroke-width:0.14;stroke-miterlimit:10;stroke-opacity:0;}
	.st6{font-size:18.02px;}
</style>
<ellipse class="st0" cx="170.5" cy="190.7" rx="110.9" ry="112.5"/>
<ellipse class="st1" cx="170.5" cy="190.7" rx="110.9" ry="112.5"/>
<ellipse class="st0" cx="495.6" cy="309.9" rx="110.8" ry="112.5"/>
<ellipse class="st1" cx="495.6" cy="309.9" rx="110.8" ry="112.5"/>
<text transform="matrix(1 0 0 1 121.82 297.67)" class="st2 st3">C</text>
<text transform="matrix(1 0 0 1 132.26 297.67)" class="st2 st3">h</text>
<text transform="matrix(1 0 0 1 142.3 297.67)" class="st2 st3">arged</text>
<text transform="matrix(1 0 0 1 186.1 297.67)" class="st2 st3"> </text>
<text transform="matrix(1 0 0 1 189.57 297.67)" class="st2 st3">o</text>
<text transform="matrix(1 0 0 1 199.45 297.67)" class="st2 st3">b</text>
<text transform="matrix(1 0 0 1 209.77 297.67)" class="st2 st3">je</text>
<text transform="matrix(1 0 0 1 223.16 297.67)" class="st2 st3">c</text>
<text transform="matrix(1 0 0 1 231.17 297.67)" class="st2 st3">t</text>
<ellipse class="st4" cx="170.6" cy="198.4" rx="168.3" ry="178.7"/>
<text transform="matrix(1 0 0 1 449.86 417.02)" class="st2 st3">C</text>
<text transform="matrix(1 0 0 1 460.3 417.02)" class="st2 st3">h</text>
<text transform="matrix(1 0 0 1 470.34 417.02)" class="st2 st3">arged</text>
<text transform="matrix(1 0 0 1 514.14 417.02)" class="st2 st3"> </text>
<text transform="matrix(1 0 0 1 517.61 417.02)" class="st2 st3">o</text>
<text transform="matrix(1 0 0 1 527.49 417.02)" class="st2 st3">b</text>
<text transform="matrix(1 0 0 1 537.81 417.02)" class="st2 st3">je</text>
<text transform="matrix(1 0 0 1 551.2 417.02)" class="st2 st3">c</text>
<text transform="matrix(1 0 0 1 559.21 417.02)" class="st2 st3">t</text>
<path d="M245.7,120.7l3.2-9.5l-9.6,3.1L245.7,120.7z M169.6,191.8l75.1-74.3l-2.1-2.1l-75.1,74.3L169.6,191.8z"/>
<rect x="176.4" y="124.4" class="st5" width="32.8" height="31.4"/>
<text transform="matrix(1 0 0 1 122.25 15.09)" class="st2 st6">Gau</text>
<text transform="matrix(1 0 0 1 152.51 15.09)" class="st2 st6">s</text>
<text transform="matrix(1 0 0 1 159.72 15.09)" class="st2 st6">s</text>
<text transform="matrix(1 0 0 1 166.9 15.09)" class="st2 st6">ian</text>
<text transform="matrix(1 0 0 1 189.8 15.09)" class="st2 st6"> </text>
<text transform="matrix(1 0 0 1 193.53 15.09)" class="st2 st6">s</text>
<text transform="matrix(1 0 0 1 200.71 15.09)" class="st2 st6">u</text>
<text transform="matrix(1 0 0 1 210.64 15.09)" class="st2 st6">r</text>
<text transform="matrix(1 0 0 1 216.59 15.09)" class="st2 st6">face</text>
<path d="M195.6,140.5c0.5,0.4,0.8,0.8,1,1.1c0.2,0.4,0.4,0.9,0.5,1.6l0.3,1.6c0.1,0.6,0.2,1,0.4,1.3c0.1,0.2,0.3,0.5,0.5,0.6
	c0.2,0.2,0.5,0.3,0.8,0.4l-0.2,0.8h-4.2c-0.3-0.7-0.5-1.6-0.7-2.6l-0.4-1.9c-0.1-0.6-0.2-1.1-0.4-1.4c-0.1-0.3-0.3-0.6-0.6-0.7
	c-0.2-0.1-0.5-0.2-0.9-0.2h-0.7l-0.8,3.7c-0.1,0.3-0.1,0.5-0.1,0.7s0,0.4,0,0.7c0,0.4,0.1,0.6,0.3,0.8c0.2,0.1,0.5,0.2,0.9,0.3
	l-0.2,0.8h-6.1l0.2-0.8c0.4-0.1,0.8-0.3,1-0.7c0.2-0.3,0.4-0.9,0.6-1.7l2.1-9.7c0.1-0.5,0.1-0.9,0.1-1.4c0-0.3-0.1-0.6-0.2-0.7
	s-0.4-0.2-0.7-0.3l0.2-0.8h5.9c0.8,0,1.5,0,2,0.1c0.5,0.1,1,0.2,1.5,0.4c0.5,0.2,0.9,0.4,1.2,0.7c0.3,0.3,0.6,0.6,0.7,1.1
	s0.3,0.9,0.3,1.4c0,1.2-0.4,2.2-1,3C198.1,139.2,197.1,139.9,195.6,140.5L195.6,140.5L195.6,140.5z M192.2,139.5
	c1,0,1.8-0.1,2.4-0.5c0.6-0.3,1-0.8,1.4-1.4c0.3-0.6,0.5-1.4,0.5-2.2c0-0.8-0.2-1.3-0.6-1.7c-0.4-0.4-1-0.6-1.8-0.6
	c-0.6,0-1,0-1.2,0l-1.4,6.3H192.2L192.2,139.5z"/>
<path d="M573.7,242.4l3.2-9.5l-9.6,3.1L573.7,242.4z M497.6,313.5l75.1-74.3l-2.1-2.1l-75.1,74.3L497.6,313.5L497.6,313.5z"/>
<rect x="504.3" y="246" class="st5" width="32.8" height="31.4"/>
<path d="M523.7,262.1c0.5,0.4,0.8,0.8,1,1.1c0.2,0.4,0.4,0.9,0.5,1.5l0.3,1.6c0.1,0.6,0.2,1,0.4,1.3c0.1,0.2,0.3,0.5,0.5,0.6
	s0.5,0.3,0.8,0.4l-0.2,0.8h-4.2c-0.3-0.7-0.5-1.6-0.7-2.6l-0.4-2c-0.1-0.6-0.2-1-0.4-1.4c-0.2-0.3-0.3-0.6-0.6-0.7
	c-0.2-0.1-0.5-0.2-0.9-0.2h-0.7l-0.8,3.7c0,0.3-0.1,0.5-0.1,0.7c0,0.2,0,0.4,0,0.7c0,0.4,0.1,0.6,0.3,0.8c0.2,0.1,0.5,0.2,0.9,0.3
	l-0.2,0.8h-6.1l0.2-0.8c0.5-0.1,0.8-0.3,1-0.7c0.2-0.3,0.4-0.9,0.6-1.7l2.1-9.7c0.1-0.5,0.2-0.9,0.2-1.4c0-0.3-0.1-0.6-0.2-0.7
	c-0.2-0.1-0.4-0.2-0.7-0.3l0.2-0.8h5.8c0.8,0,1.5,0,2,0.1s1,0.2,1.5,0.4c0.5,0.2,0.9,0.4,1.2,0.7c0.3,0.3,0.6,0.6,0.7,1.1
	c0.2,0.4,0.3,0.9,0.3,1.4c0,1.2-0.3,2.2-1,3c-0.7,0.8-1.8,1.5-3.2,2L523.7,262.1L523.7,262.1z M520.2,261.2c1,0,1.8-0.1,2.4-0.5
	c0.6-0.3,1-0.8,1.3-1.4c0.3-0.6,0.5-1.4,0.5-2.2c0-0.8-0.2-1.3-0.6-1.7c-0.4-0.4-1-0.6-1.8-0.6c-0.6,0-1,0-1.2,0l-1.4,6.4
	L520.2,261.2L520.2,261.2z"/>
<ellipse class="st4" cx="496.5" cy="309.9" rx="79.8" ry="73"/>
<rect x="77.4" y="75.1" class="st5" width="24.8" height="29.4"/>
<text transform="matrix(1 0 0 1 443.26 233.37)" class="st2 st3">Gau</text>
<text transform="matrix(1 0 0 1 473.48 233.37)" class="st2 st3">s</text>
<text transform="matrix(1 0 0 1 480.63 233.37)" class="st2 st3">sian</text>
<text transform="matrix(1 0 0 1 510.63 233.37)" class="st2 st3"> </text>
<text transform="matrix(1 0 0 1 514.38 233.37)" class="st2 st3">s</text>
<text transform="matrix(1 0 0 1 521.51 233.37)" class="st2 st3">u</text>
<text transform="matrix(1 0 0 1 531.5 233.37)" class="st2 st3">rfa</text>
<text transform="matrix(1 0 0 1 551.31 233.37)" class="st2 st3">c</text>
<text transform="matrix(1 0 0 1 559.32 233.37)" class="st2 st3">e</text>
<path d="M89.8,89.5c0.7-0.9,1.3-1.6,2.1-2.1c0.7-0.5,1.5-0.7,2.4-0.7c0.5,0,1.1,0.1,1.6,0.2L95.2,90h-2.1c0-0.5-0.1-0.9-0.2-1.1
	s-0.3-0.3-0.6-0.3c-0.2,0-0.4,0.1-0.7,0.2s-0.6,0.4-0.9,0.9s-0.6,0.8-0.8,1.2c-0.2,0.4-0.3,0.9-0.5,1.5l-1.3,6h-3.4l1.9-8.1
	c0.1-0.5,0.2-0.9,0.2-1.2s0-0.5-0.1-0.6s-0.2-0.2-0.4-0.2c-0.2,0-0.5,0.1-0.8,0.3c-0.3,0.2-0.6,0.5-1,1l-0.8-0.8
	c0.8-0.8,1.5-1.4,2.1-1.7s1.2-0.5,1.9-0.5s1.2,0.2,1.6,0.5s0.6,0.8,0.6,1.4C89.8,88.9,89.8,89.1,89.8,89.5L89.8,89.5L89.8,89.5z"/>
<path d="M54.6,81.7l-3.1-9.6l9.5,3.2L54.6,81.7L54.6,81.7z M167.4,191.8L55.7,78.5l2.1-2.1l111.7,113.2L167.4,191.8z"/>
<rect x="440.4" y="278.1" class="st5" width="24.8" height="29.4"/>
<path d="M452.9,292.6c0.7-0.9,1.3-1.6,2.1-2.1s1.5-0.7,2.4-0.7c0.5,0,1.1,0.1,1.6,0.2l-0.7,3.1h-2.1c0-0.5-0.1-0.9-0.2-1.1
	c-0.1-0.2-0.3-0.3-0.6-0.3c-0.2,0-0.4,0.1-0.7,0.2s-0.5,0.4-0.9,0.9s-0.6,0.8-0.8,1.2c-0.2,0.4-0.3,0.9-0.5,1.5l-1.3,6h-3.4l1.9-8.1
	c0.1-0.5,0.2-0.9,0.2-1.2s0-0.5-0.1-0.6s-0.2-0.2-0.5-0.2c-0.2,0-0.5,0.1-0.8,0.3c-0.3,0.2-0.6,0.5-1,1l-0.8-0.8
	c0.8-0.8,1.5-1.4,2.1-1.7s1.2-0.5,1.9-0.5s1.2,0.2,1.5,0.5s0.6,0.8,0.6,1.4C452.9,292,452.9,292.3,452.9,292.6L452.9,292.6
	L452.9,292.6z"/>
<path d="M441.2,272.9l-4.1-9.2l9.8,2.2L441.2,272.9z M494.7,312.6l-52.7-43l1.9-2.3l52.7,43L494.7,312.6L494.7,312.6z"/>
</svg>
