<?xml version="1.0" encoding="UTF-8"?><svg id="Layer_1" xmlns="http://www.w3.org/2000/svg" viewBox="0 0 232.27 415.98"><defs><style>.cls-1{stroke-width:1.25px;}.cls-1,.cls-2{stroke-linejoin:round;}.cls-1,.cls-2,.cls-3{fill:none;}.cls-1,.cls-3{stroke:#000;}.cls-4{fill:#27ced7;}.cls-4,.cls-5,.cls-6{fill-rule:evenodd;}.cls-4,.cls-5,.cls-6,.cls-7,.cls-8,.cls-9{stroke-width:0px;}.cls-5{fill:#7de2e7;}.cls-6{fill:#8dd6c1;}.cls-2{stroke:#335b74;stroke-dasharray:0 0 20.05 15.04;stroke-width:5.01px;}.cls-8{fill:#335b74;}.cls-9{fill:#bbe6da;}.cls-3{opacity:0;stroke-miterlimit:10;stroke-width:.23px;}</style></defs><path class="cls-4" d="m.63,71.1c0,25.48,50.85,46.13,113.57,46.13s113.57-20.65,113.57-46.13v276.99c0,25.49-50.85,46.14-113.57,46.14S.63,373.58.63,348.09V71.1Z"/><path class="cls-5" d="m.63,71.1C.63,45.61,51.47,24.96,114.19,24.96s113.57,20.65,113.57,46.14-50.85,46.13-113.57,46.13S.63,96.58.63,71.1Z"/><path class="cls-1" d="m227.76,71.1c0,25.48-50.85,46.13-113.57,46.13S.63,96.58.63,71.1,51.47,24.96,114.19,24.96s113.57,20.65,113.57,46.14v276.99c0,25.49-50.85,46.14-113.57,46.14S.63,373.58.63,348.09V71.1"/><path class="cls-8" d="m217.24,59.44l15.04,7.52-15.04,7.52v-15.04Zm-108.66,5.01h111.16v5.01h-111.16v-5.01Z"/><rect class="cls-3" x="120.71" y="23.76" width="52.32" height="52.52"/><path class="cls-7" d="m150.32,50.83c.63.47,1.13,1.03,1.52,1.69.39.65.7,1.56.93,2.72l.45,2.27c.14.72.31,1.37.49,1.94.18.58.4,1.03.66,1.37.25.34.54.59.86.76.32.17.79.31,1.4.41l-.2.96h-5.43c-.42-1.16-.79-2.55-1.12-4.15l-.86-4.15c-.14-.72-.32-1.32-.52-1.81-.2-.49-.44-.87-.73-1.14-.28-.27-.61-.44-.98-.53-.37-.08-.83-.13-1.36-.13h-2.23l-1.37,6.21c-.12.51-.2.91-.24,1.22-.05.3-.09.62-.12.95-.03.33-.05.63-.05.89,0,.41.07.72.2.95.13.23.33.4.59.5.26.1.71.18,1.35.24l-.22.96h-8.05l.22-.96c.5-.08.87-.21,1.12-.38.25-.18.46-.42.63-.73.17-.31.33-.7.47-1.15.14-.45.36-1.32.65-2.62l3.33-15.09c.29-1.31.43-2.34.43-3.1,0-.64-.15-1.08-.45-1.33-.3-.25-.79-.39-1.47-.43l.22-.96h8.72c1.38,0,2.51.08,3.39.24.88.16,1.62.41,2.24.73.62.33,1.14.75,1.56,1.26.42.52.73,1.1.94,1.74.21.65.31,1.34.31,2.07,0,2.01-.61,3.72-1.84,5.13-1.23,1.41-3.04,2.48-5.43,3.21v.22Zm-4.43-1.47c1.89,0,3.39-.25,4.49-.76,1.1-.51,1.97-1.35,2.61-2.51.64-1.16.96-2.42.96-3.76,0-.56-.05-1.06-.16-1.5-.1-.44-.24-.8-.41-1.09-.17-.29-.39-.54-.65-.76-.26-.22-.59-.41-.98-.58-.39-.16-.85-.28-1.36-.35-.52-.07-1.22-.11-2.11-.11-.69,0-1.42.03-2.19.08l-2.51,11.35h2.31Z"/><path class="cls-6" d="m50.34,169.58c0,14.67,28.45,26.55,63.55,26.55s63.55-11.88,63.55-26.55v159.01c0,14.67-28.45,26.55-63.55,26.55s-63.55-11.88-63.55-26.55v-159.01Z"/><ellipse class="cls-9" cx="113.89" cy="169.58" rx="63.55" ry="26.55"/><path class="cls-1" d="m177.44,169.58c0,14.67-28.45,26.55-63.55,26.55s-63.55-11.88-63.55-26.55,28.45-26.55,63.55-26.55,63.55,11.88,63.55,26.55v159.01c0,14.67-28.45,26.55-63.55,26.55s-63.55-11.88-63.55-26.55v-159.01"/><path class="cls-7" d="m164.11,175.11l15.04-7.52-15.04-7.52v15.04Zm-50.72-5.01h53.23v-5.01h-53.23v5.01Z"/><rect class="cls-3" x="113.09" y="127.2" width="38.29" height="48.71"/><path class="cls-7" d="m131.38,152.4c1.28-1.74,2.51-3.01,3.69-3.82,1.18-.81,2.38-1.21,3.6-1.21.95,0,1.75.07,2.39.22l-.94,4.39h-2.02c-.08-.55-.19-.97-.33-1.27-.14-.3-.31-.51-.51-.63-.2-.12-.44-.18-.74-.18-.47,0-.98.2-1.54.61-.56.41-1.18,1.04-1.87,1.9-.69.86-1.24,1.69-1.66,2.49-.41.8-.75,1.81-1.03,3.04l-1.86,8.49h-3.39l2.84-12.42c.18-.78.3-1.39.35-1.82.05-.43.08-.79.08-1.08,0-.52-.09-.9-.25-1.14-.17-.24-.44-.35-.8-.35-.41,0-.83.17-1.28.5s-1.07.94-1.85,1.81l-1.12-1.1c1.2-1.25,2.21-2.15,3.02-2.67.81-.53,1.7-.79,2.68-.79.82,0,1.47.27,1.95.81.48.54.72,1.25.72,2.13,0,.65-.12,1.33-.37,2.02l.25.1Z"/><line class="cls-2" x1="110.18" x2="110.18" y2="415.98"/></svg>