<?xml version="1.0" encoding="UTF-8"?><svg id="Layer_1" xmlns="http://www.w3.org/2000/svg" xmlns:xlink="http://www.w3.org/1999/xlink" viewBox="0 0 720 540"><defs><style>.cls-1{letter-spacing:-.02em;}.cls-2{letter-spacing:.05em;}.cls-3,.cls-4,.cls-5,.cls-6,.cls-7,.cls-8,.cls-9{fill:none;}.cls-3,.cls-4,.cls-5,.cls-7,.cls-8{stroke-linejoin:round;}.cls-3,.cls-5{stroke:#335b74;}.cls-10{clip-path:url(#clippath);}.cls-11{letter-spacing:0em;}.cls-12{letter-spacing:0em;}.cls-4{stroke-width:2.25px;}.cls-4,.cls-7,.cls-9{stroke:#000;}.cls-13{letter-spacing:0em;}.cls-14{letter-spacing:.04em;}.cls-15{letter-spacing:0em;}.cls-16{letter-spacing:.04em;}.cls-17{clip-path:url(#clippath-1);}.cls-18{clip-path:url(#clippath-2);}.cls-19{letter-spacing:-.02em;}.cls-20{letter-spacing:.04em;}.cls-5{stroke-width:.75px;}.cls-6{clip-rule:evenodd;}.cls-6,.cls-21,.cls-22,.cls-23,.cls-24,.cls-25,.cls-26,.cls-27,.cls-28,.cls-29,.cls-30{stroke-width:0px;}.cls-7,.cls-8{stroke-width:1.25px;}.cls-8{stroke:#117ea7;}.cls-31,.cls-32{font-size:24px;}.cls-31,.cls-32,.cls-33,.cls-34{font-family:CambriaMath, CambriaMath;}.cls-31,.cls-23,.cls-25{fill:#2683c6;}.cls-32,.cls-34,.cls-28{fill:#3e8853;}.cls-35{font-size:20.04px;}.cls-35,.cls-36{font-family:TwCenMT-Regular, 'Tw Cen MT';}.cls-21,.cls-22,.cls-23,.cls-30{fill-rule:evenodd;}.cls-21,.cls-26{fill:#62a39f;}.cls-22{fill:#27ced7;}.cls-37{letter-spacing:.04em;}.cls-9{opacity:0;stroke-miterlimit:10;stroke-width:.14px;}.cls-33{font-size:18px;}.cls-33,.cls-27{fill:#335b74;}.cls-36{fill:#0d0d0d;font-size:24.02px;}.cls-34{font-size:32.04px;}.cls-38{letter-spacing:.04em;}.cls-29{fill:#1cade4;}.cls-39{letter-spacing:0em;}.cls-40{letter-spacing:.04em;}.cls-41{letter-spacing:.04em;}.cls-42{letter-spacing:.04em;}</style><clipPath id="clippath"><polyline class="cls-6" points="0 0 720 0 720 540 0 540"/></clipPath><clipPath id="clippath-1"><polyline class="cls-6" points="0 0 720 0 720 540 0 540"/></clipPath><clipPath id="clippath-2"><polyline class="cls-6" points="0 0 720 0 720 540 0 540"/></clipPath></defs><path class="cls-4" d="m457.08,182.94c49.34,0,89.34,43.6,89.34,97.38s-39.36,96.75-88.29,97.37"/><path class="cls-30" d="m318.72,277.98c0-1.23.86-2.22,1.92-2.22s1.92.99,1.92,2.22-.86,2.22-1.92,2.22-1.92-.99-1.92-2.22Z"/><path class="cls-7" d="m318.72,277.98c0-1.23.86-2.22,1.92-2.22s1.92.99,1.92,2.22-.86,2.22-1.92,2.22-1.92-.99-1.92-2.22Z"/><g class="cls-10"><polygon class="cls-22" points="497.68 198.12 501.42 193.05 510.98 200.1 507.25 205.16 497.68 198.12"/></g><g class="cls-17"><polygon class="cls-8" points="497.68 198.12 501.42 193.05 510.98 200.1 507.25 205.16 497.68 198.12"/></g><text class="cls-36" transform="translate(501.6 167.59)"><tspan class="cls-42" x="0" y="0">C</tspan><tspan class="cls-38" x="15.42" y="0">H</tspan><tspan class="cls-42" x="30.87" y="0">A</tspan><tspan class="cls-14" x="46.29" y="0">RG</tspan><tspan class="cls-37" x="78.61" y="0">E</tspan><tspan class="cls-40" x="90.11" y="0">D</tspan><tspan class="cls-2" x="105.54" y="0"> </tspan><tspan class="cls-20" x="113.32" y="0">O</tspan><tspan class="cls-41" x="132.71" y="0">B</tspan><tspan class="cls-38" x="145.63" y="0">J</tspan><tspan class="cls-37" x="155.81" y="0">E</tspan><tspan class="cls-40" x="167.32" y="0">C</tspan><tspan x="182.74" y="0">T</tspan></text><rect class="cls-9" x="498" y="176.88" width="40.8" height="32.16"/><text class="cls-35" transform="translate(157.68 282.7)"><tspan x="0" y="0">Obs</tspan><tspan class="cls-39" x="33.18" y="0">e</tspan><tspan class="cls-16" x="43.3" y="0">r</tspan><tspan class="cls-19" x="50.7" y="0">v</tspan><tspan class="cls-15" x="59.11" y="0">a</tspan><tspan x="70.05" y="0">tion</tspan><tspan class="cls-1" x="98.67" y="0"> </tspan><tspan class="cls-11" x="103.8" y="0">po</tspan><tspan class="cls-12" x="124.88" y="0">i</tspan><tspan class="cls-13" x="129.31" y="0">nt</tspan></text><path class="cls-29" d="m514.14,193.24c-.63.91-1.22,1.58-1.78,2.01-.56.42-1.15.64-1.78.64-.72,0-1.27-.27-1.67-.81-.39-.54-.59-1.3-.59-2.28,0-1.12.22-2.2.66-3.23.44-1.03,1.05-1.85,1.82-2.45.77-.6,1.63-.9,2.57-.9.4,0,.76.04,1.1.12.34.08.68.22,1.03.43l.51-2.26c.05-.22.1-.45.14-.71.04-.26.06-.49.06-.68s-.04-.34-.11-.45c-.07-.1-.17-.17-.31-.22-.13-.05-.37-.08-.72-.1l.12-.51,2.46-.09h.58l-2.44,10.83c-.14.64-.22,1.12-.22,1.45,0,.26.04.45.13.57.08.12.22.18.4.18.2,0,.4-.08.63-.24.22-.16.53-.46.94-.91l.56.55c-.6.63-1.11,1.08-1.52,1.34-.41.26-.85.39-1.33.39-.4,0-.73-.13-.97-.4-.24-.27-.36-.62-.36-1.07,0-.36.07-.74.23-1.14l-.13-.04Zm.66-3.46c.1-.47.15-.91.15-1.33,0-.51-.11-.88-.32-1.11-.22-.23-.57-.35-1.08-.35-.67,0-1.26.27-1.79.81-.53.54-.94,1.26-1.25,2.18-.3.91-.46,1.82-.46,2.73,0,.68.09,1.19.28,1.52.19.34.5.5.93.5.2,0,.41-.04.62-.13.21-.09.43-.23.65-.43.23-.2.45-.43.67-.71.22-.28.42-.56.6-.85.18-.28.35-.62.51-1.01.16-.39.29-.86.4-1.4l.09-.42Zm10.85,3.69c-.56.79-1.13,1.39-1.72,1.8-.58.41-1.15.62-1.71.62-.72,0-1.27-.27-1.67-.81-.39-.54-.59-1.3-.59-2.28,0-1.12.22-2.2.66-3.23.44-1.03,1.05-1.85,1.82-2.45.77-.6,1.63-.9,2.57-.9.4,0,.79.05,1.15.14.37.09.74.26,1.14.5l.9-.65.63.16-2.51,11.13c-.11.5-.17.87-.17,1.12,0,.29.07.49.22.61.15.12.44.2.87.24l-.09.48h-3.05l1.68-6.42-.14-.06Zm.79-3.69c.1-.47.15-.91.15-1.33,0-.51-.11-.88-.32-1.11-.22-.23-.57-.35-1.08-.35-.67,0-1.26.27-1.79.81-.53.54-.94,1.26-1.25,2.18-.3.91-.46,1.82-.46,2.73,0,.68.09,1.19.28,1.52.19.34.5.5.93.5.2,0,.41-.04.62-.13.21-.09.43-.23.65-.43.23-.2.45-.43.67-.71.22-.28.42-.56.6-.85.18-.28.35-.62.51-1.01.16-.39.29-.86.4-1.4l.09-.42Z"/><path class="cls-28" d="m328.73,268.86l-6.59,7.6,10.04.71-3.45-8.31Zm173.27-68.59l-173.51,71.93,1.15,2.77,173.51-71.92-1.15-2.78Z"/><rect class="cls-9" x="393.24" y="197.76" width="34.8" height="33.72"/><path class="cls-28" d="m405.04,218.7c.64-.87,1.25-1.5,1.84-1.91.59-.4,1.19-.61,1.8-.61.48,0,.87.04,1.19.11l-.47,2.19h-1.01c-.04-.27-.09-.49-.17-.64-.07-.15-.16-.25-.25-.31-.1-.06-.22-.09-.37-.09-.23,0-.49.1-.77.3-.28.2-.59.52-.93.95-.35.43-.62.84-.83,1.24-.21.4-.38.9-.51,1.52l-.93,4.24h-1.69l1.42-6.2c.09-.39.15-.69.18-.91.03-.22.04-.39.04-.54,0-.26-.04-.45-.13-.57-.08-.12-.22-.18-.4-.18-.2,0-.42.08-.64.25-.23.17-.53.47-.92.91l-.56-.55c.6-.63,1.1-1.07,1.51-1.34.4-.26.85-.4,1.34-.4.41,0,.74.14.97.41.24.27.36.62.36,1.06,0,.33-.06.66-.19,1.01l.13.05Zm5.31-6.09l-2.46,2.12-.52-.59,1.57-1.36h-5.97v-.92h5.97l-1.57-1.36.52-.59,2.46,2.12v.57Z"/><path class="cls-24" d="m678.38,274.92l6,3-6,3v-6Zm-4.58,2.5h4v1h-4v-1Zm-7,0h4v1h-4v-1Zm-7,0h4v1h-4v-1Zm-7,0h4v1h-4v-1Zm-7,0h4v1h-4v-1Zm-7,0h4v1h-4v-1Zm-7,0h4v1h-4v-1Zm-7,0h4v1h-4v-1Zm-7,0h4v1h-4v-1Zm-7,0h4v1h-4v-1Zm-7,0h4v1h-4v-1Zm-7,0h4v1h-4v-1Zm-7,0h4v1h-4v-1Zm-7,0h4v1h-4v-1Zm-7,0h4v1h-4v-1Zm-7,0h4v1h-4v-1Zm-7,0h4v1h-4v-1Zm-7,0h4v1h-4v-1Zm-7,0h4v1h-4v-1Zm-7,0h4v1h-4v-1Zm-7,0h4v1h-4v-1Zm-7,0h4v1h-4v-1Zm-7,0h4v1h-4v-1Zm-7,0h4v1h-4v-1Zm-7,0h4v1h-4v-1Zm-7,0h4v1h-4v-1Zm-7,0h4v1h-4v-1Zm-7,0h4v1h-4v-1Zm-7,0h4v1h-4v-1Zm-7,0h4v1h-4v-1Zm-7,0h4v1h-4v-1Zm-7,0h4v1h-4v-1Zm-7,0h4v1h-4v-1Zm-7,0h4v1h-4v-1Zm-7,0h4v1h-4v-1Zm-7,0h4v1h-4v-1Zm-7,0h4v1h-4v-1Zm-7,0h4v1h-4v-1Zm-7,0h4v1h-4v-1Zm-7,0h4v1h-4v-1Zm-7,0h4v1h-4v-1Zm-7,0h4v1h-4v-1Zm-7,0h4v1h-4v-1Zm-7,0h4v1h-4v-1Zm-7,0h4v1h-4v-1Zm-7,0h4v1h-4v-1Zm-7,0h4v1h-4v-1Zm-7,0h4v1h-4v-1Zm-7,0h4v1h-4v-1Zm-7,0h4v1h-4v-1Zm-7,0h4v1h-4v-1Zm-7,0h4v1h-4v-1Zm-7,0h4v1h-4v-1Zm-7,0h4v1h-4v-1Zm-7,0h4v1h-4v-1Z"/><line class="cls-5" x1="457.92" y1="277.92" x2="529.56" y2="339.81"/><rect class="cls-9" x="495.96" y="293.64" width="23.64" height="23.04"/><path class="cls-27" d="m509.32,305.26c.28.21.51.46.68.76.17.29.31.7.42,1.22l.2,1.02c.06.32.14.61.22.87.08.26.18.46.29.62.11.15.24.27.39.34.14.08.35.14.63.18l-.09.43h-2.43c-.19-.52-.35-1.14-.5-1.86l-.39-1.86c-.06-.32-.14-.59-.23-.81-.09-.22-.2-.39-.33-.51-.13-.12-.27-.2-.44-.24-.17-.04-.37-.06-.61-.06h-1l-.62,2.79c-.05.23-.09.41-.11.54-.02.13-.04.28-.05.43-.01.15-.02.28-.02.4,0,.18.03.32.09.43.06.1.15.18.26.22.12.05.32.08.61.11l-.1.43h-3.61l.1-.43c.22-.04.39-.09.5-.17.11-.08.21-.19.28-.33.08-.14.15-.31.21-.51.06-.2.16-.59.29-1.17l1.49-6.77c.13-.59.19-1.05.19-1.39,0-.29-.07-.49-.2-.6-.13-.11-.35-.18-.66-.19l.1-.43h3.91c.62,0,1.13.04,1.52.11.39.07.73.18,1.01.33.28.15.51.34.7.57.19.23.33.49.42.78.09.29.14.6.14.93,0,.9-.28,1.67-.83,2.3-.55.63-1.36,1.11-2.43,1.44v.1Zm-1.99-.66c.85,0,1.52-.11,2.01-.34s.88-.6,1.17-1.12c.29-.52.43-1.08.43-1.69,0-.25-.02-.48-.07-.67-.05-.2-.11-.36-.18-.49-.08-.13-.17-.24-.29-.34-.12-.1-.26-.19-.44-.26-.18-.07-.38-.13-.61-.16-.23-.03-.55-.05-.94-.05-.31,0-.64.01-.98.04l-1.12,5.09h1.04Z"/><g class="cls-18"><path class="cls-3" d="m457.92,281.76c0,6.4-.96,11.58-2.14,11.58h-63.64c-1.18,0-2.14,5.18-2.14,11.58,0-6.4-.96-11.58-2.14-11.58h-63.64c-1.18,0-2.14-5.18-2.14-11.58"/></g><rect class="cls-9" x="379.8" y="302.28" width="22.08" height="23.52"/><text class="cls-33" transform="translate(386.26 319.46)"><tspan x="0" y="0">ℓ</tspan></text><rect class="cls-9" x="685.8" y="264.84" width="18.36" height="21.84"/><path class="cls-24" d="m694.53,278.03c-.09-.46-.18-.91-.27-1.34-.09-.43-.19-.83-.29-1.2-.1-.37-.18-.61-.25-.73-.06-.11-.13-.19-.21-.24-.07-.04-.17-.07-.28-.07-.12,0-.23.03-.33.08-.1.06-.21.15-.33.29-.12.14-.27.35-.47.65l-.57-.38c.37-.56.72-.97,1.06-1.25.34-.28.74-.41,1.2-.41.18,0,.34.02.48.06.14.04.26.1.36.19.11.09.2.19.28.33.08.13.16.32.24.55.08.23.15.52.22.86.07.34.13.7.18,1.07h.09c.56-.79.99-1.37,1.28-1.74.29-.37.53-.64.73-.82.2-.18.39-.3.58-.38.18-.07.43-.11.73-.11.28,0,.5.04.68.11l-.35,1.59h-.62c-.04-.25-.14-.37-.31-.37-.05,0-.11,0-.17.03-.06.02-.13.06-.22.11-.09.06-.21.17-.37.34-.16.17-.35.38-.55.62-.21.25-.42.5-.63.77l-.6.75c.11.56.21,1.05.3,1.46.09.41.18.75.25,1.02.07.27.14.49.19.65.06.16.12.28.18.36.06.08.13.13.2.17.07.03.15.05.23.05.16,0,.31-.06.46-.18s.36-.4.65-.83l.57.38c-.41.61-.78,1.04-1.11,1.29-.33.25-.73.37-1.18.37-.25,0-.47-.05-.64-.14s-.33-.24-.46-.44c-.13-.2-.24-.51-.34-.93-.18-.75-.29-1.32-.33-1.72h-.09c-.62.87-1.08,1.5-1.38,1.88-.3.38-.55.66-.75.84-.2.18-.39.31-.57.38s-.43.11-.73.11c-.28,0-.5-.04-.68-.11l.35-1.59h.62c.04.25.14.37.31.37.08,0,.17-.02.26-.07.09-.04.22-.15.39-.32.17-.17.4-.43.7-.79.3-.36.73-.89,1.3-1.61Z"/><line class="cls-5" x1="459.84" y1="275.97" x2="499.44" y2="207.36"/><rect class="cls-9" x="463.2" y="219.96" width="23.64" height="23.16"/><path class="cls-27" d="m476.56,231.66c.28.21.51.46.68.76.17.29.31.7.42,1.22l.2,1.02c.06.32.14.61.22.87.08.26.18.46.29.62.11.15.24.27.39.34.14.08.35.14.63.18l-.09.43h-2.43c-.19-.52-.35-1.14-.5-1.86l-.39-1.86c-.06-.32-.14-.59-.23-.81-.09-.22-.2-.39-.33-.51-.13-.12-.27-.2-.44-.24-.17-.04-.37-.06-.61-.06h-1l-.62,2.79c-.05.23-.09.41-.11.54-.02.13-.04.28-.05.43-.01.15-.02.28-.02.4,0,.18.03.32.09.43.06.1.15.18.26.22.12.05.32.08.61.11l-.1.43h-3.61l.1-.43c.22-.04.39-.09.5-.17.11-.08.21-.19.28-.33.08-.14.15-.31.21-.51.06-.2.16-.59.29-1.17l1.49-6.77c.13-.59.19-1.05.19-1.39,0-.29-.07-.49-.2-.6-.13-.11-.35-.18-.66-.19l.1-.43h3.91c.62,0,1.13.04,1.52.11.39.07.73.18,1.01.33.28.15.51.34.7.57.19.23.33.49.42.78.09.29.14.6.14.93,0,.9-.28,1.67-.83,2.3-.55.63-1.36,1.11-2.43,1.44v.1Zm-1.99-.66c.85,0,1.52-.11,2.01-.34s.88-.6,1.17-1.12c.29-.52.43-1.08.43-1.69,0-.25-.02-.48-.07-.67-.05-.2-.11-.36-.18-.49-.08-.13-.17-.24-.29-.34-.12-.1-.26-.19-.44-.26-.18-.07-.38-.13-.61-.16-.23-.03-.55-.05-.94-.05-.31,0-.64.01-.98.04l-1.12,5.09h1.04Z"/><rect class="cls-9" x="38.76" y="177" width="237.72" height="49.32"/><path class="cls-21" d="m119,192.03l.31.9c-1.82.6-3.18,1.77-4.06,3.52-.88,1.75-1.31,3.94-1.31,6.58s.43,4.99,1.31,6.76c.88,1.78,2.22,2.96,4.03,3.56l-.28.91c-2.29-.6-4.05-1.9-5.26-3.89-1.22-1.99-1.83-4.39-1.83-7.22s.61-5.23,1.83-7.23c1.22-1.99,2.98-3.29,5.26-3.89Zm27.08,0c2.28.6,4.03,1.9,5.26,3.89,1.22,2,1.83,4.41,1.83,7.23s-.61,5.23-1.83,7.22-2.97,3.29-5.26,3.89l-.28-.91c1.8-.6,3.15-1.78,4.02-3.56.88-1.77,1.32-4.03,1.32-6.76s-.43-4.83-1.31-6.58c-.87-1.75-2.23-2.92-4.07-3.52l.32-.9Z"/><path class="cls-25" d="m507,271.27l-4.5,9-4.5-9h9Zm-3-69.61v71.11h-3v-71.11h3Z"/><rect class="cls-9" x="499.44" y="218.52" width="29.04" height="31.56"/><path class="cls-25" d="m510.67,233.01c.57-.78,1.13-1.35,1.66-1.72.53-.36,1.07-.55,1.61-.55.43,0,.79.03,1.07.1l-.42,1.97h-.91c-.04-.25-.09-.44-.15-.57-.06-.13-.14-.23-.23-.28-.09-.05-.2-.08-.33-.08-.21,0-.44.09-.69.27-.25.18-.53.47-.84.85-.31.39-.56.76-.74,1.12-.18.36-.34.81-.46,1.36l-.84,3.81h-1.52l1.28-5.58c.08-.35.13-.62.16-.82.02-.19.04-.35.04-.48,0-.23-.04-.4-.11-.51-.08-.11-.2-.16-.36-.16-.18,0-.37.07-.58.22-.2.15-.48.42-.83.81l-.5-.49c.54-.56.99-.96,1.36-1.2.36-.24.77-.36,1.21-.36.37,0,.66.12.88.37.21.24.32.56.32.95,0,.29-.06.6-.17.91l.11.04Z"/><path class="cls-25" d="m515.82,243.01c-.14-.82-.27-1.52-.37-2.12-.11-.6-.21-1.1-.29-1.52-.09-.42-.17-.76-.24-1.02-.07-.26-.14-.47-.21-.61-.07-.15-.14-.25-.21-.3-.07-.05-.15-.08-.23-.08-.08,0-.15,0-.21.03-.06.02-.13.06-.2.12-.07.06-.14.15-.22.25-.08.11-.18.25-.29.43l-.5-.32c.18-.27.35-.5.51-.68.15-.18.31-.32.46-.43.15-.11.31-.18.47-.23.16-.05.33-.07.52-.07.15,0,.29.02.4.05.11.03.21.08.3.15.09.07.17.16.24.27.07.11.14.24.22.4.04.09.08.23.12.41.04.18.09.38.14.61.05.23.09.49.14.77.05.28.09.57.14.88.05.31.09.62.14.94.04.32.08.63.12.94.32-.42.61-.85.87-1.28.26-.43.48-.84.65-1.22.18-.38.31-.73.41-1.05.09-.32.14-.57.14-.76,0-.19-.05-.32-.15-.41-.1-.08-.26-.13-.5-.14l.08-.41h1.84l.23.37c-.43,1.06-.93,2.09-1.5,3.07-.57.99-1.22,1.94-1.94,2.87-.31.37-.6.7-.85.97s-.48.5-.7.7c-.21.2-.41.36-.59.48-.18.12-.36.22-.53.3-.17.08-.34.13-.51.16-.17.03-.35.05-.53.06-.1,0-.22-.01-.36-.03-.14-.02-.26-.05-.37-.08l.32-1.41h.59v.04c0,.29.12.44.35.44.31,0,.63-.12.95-.36.32-.24.71-.63,1.17-1.16Z"/><path class="cls-26" d="m331.1,277.19l-8.96,4.57,9.04,4.42-.08-8.99Zm171.46,1.57l-172.93,1.44.02,3,172.94-1.44-.03-3Z"/><rect class="cls-9" x="406.44" y="251.88" width="32.76" height="29.16"/><path class="cls-28" d="m52.6,201.6c.77-1.04,1.5-1.8,2.21-2.29.71-.48,1.42-.73,2.15-.73.57,0,1.05.04,1.43.13l-.56,2.62h-1.21c-.05-.33-.11-.58-.2-.76-.09-.18-.19-.3-.3-.38s-.27-.11-.45-.11c-.28,0-.59.12-.92.36-.33.24-.71.62-1.12,1.14-.41.52-.74,1.01-.99,1.49-.25.48-.45,1.08-.62,1.82l-1.11,5.07h-2.03l1.7-7.43c.11-.47.18-.83.21-1.09.03-.26.05-.47.05-.64,0-.31-.05-.54-.15-.68-.1-.14-.26-.21-.48-.21-.24,0-.5.1-.77.3s-.64.56-1.11,1.08l-.67-.66c.72-.75,1.32-1.28,1.8-1.6.48-.32,1.02-.47,1.61-.47.49,0,.88.16,1.17.49.29.32.43.75.43,1.27,0,.39-.07.79-.22,1.21l.15.06Zm6.39-7.29l-2.94,2.54-.62-.7,1.88-1.63h-7.15v-1.1h7.15l-1.88-1.63.62-.7,2.94,2.54v.68Zm8.75,7.16v-1.56h14.44v1.56h-14.44Zm0,4.86v-1.56h14.44v1.56h-14.44Z"/><path class="cls-26" d="m95.71,201.6c.77-1.04,1.5-1.8,2.21-2.29.71-.48,1.42-.73,2.15-.73.57,0,1.05.04,1.43.13l-.56,2.62h-1.21c-.05-.33-.11-.58-.2-.76-.09-.18-.19-.3-.3-.38s-.27-.11-.45-.11c-.28,0-.59.12-.92.36-.33.24-.71.62-1.12,1.14-.41.52-.74,1.01-.99,1.49-.25.48-.45,1.08-.62,1.82l-1.11,5.07h-2.03l1.7-7.43c.11-.47.18-.83.21-1.09.03-.26.05-.47.05-.64,0-.31-.05-.54-.15-.68-.1-.14-.26-.21-.48-.21-.24,0-.5.1-.77.3s-.64.56-1.11,1.08l-.67-.66c.72-.75,1.32-1.28,1.8-1.6.48-.32,1.02-.47,1.61-.47.49,0,.88.16,1.17.49.29.32.43.75.43,1.27,0,.39-.07.79-.22,1.21l.15.06Z"/><path class="cls-26" d="m102.47,210.78c-.1-.48-.19-.9-.27-1.25-.08-.35-.15-.66-.21-.91-.07-.25-.13-.46-.19-.62-.06-.16-.13-.29-.19-.38-.07-.09-.14-.16-.21-.2-.08-.04-.17-.06-.27-.07-.1,0-.19.02-.27.05-.08.03-.17.09-.26.17-.09.08-.19.19-.29.33-.11.14-.23.33-.36.56l-.66-.43c.23-.35.44-.64.63-.88.19-.24.37-.43.56-.57.18-.14.37-.25.58-.31.2-.06.43-.09.7-.09.31,0,.57.07.77.21.2.14.36.34.5.6.13.26.24.59.33.97.09.38.18.83.27,1.32h.11c.34-.45.64-.84.89-1.17.25-.33.47-.61.67-.84.2-.23.37-.41.53-.56.16-.14.31-.25.46-.33.15-.08.3-.13.46-.16.16-.03.33-.04.53-.04.29,0,.54.05.78.15l-.43,1.69h-.71c-.02-.25-.11-.37-.27-.37-.06,0-.13.01-.21.03-.07.02-.16.07-.27.14-.1.07-.22.16-.36.29-.13.12-.29.28-.47.48-.18.2-.39.44-.62.72-.23.29-.5.62-.8,1.01.15.79.29,1.42.4,1.89.11.47.22.84.32,1.09.1.25.21.41.31.49.1.08.22.12.35.12.1,0,.19-.01.27-.03.08-.02.17-.07.26-.15.09-.08.19-.19.3-.33.11-.15.24-.34.38-.58l.64.42c-.25.38-.47.68-.67.92-.19.24-.38.43-.56.56-.18.14-.37.23-.56.28-.19.05-.42.07-.67.07-.22,0-.41-.03-.58-.09-.17-.06-.32-.17-.44-.33-.09-.1-.17-.23-.24-.39-.07-.16-.14-.34-.21-.53-.06-.19-.12-.38-.17-.59-.05-.2-.09-.39-.13-.57-.03-.18-.06-.33-.08-.47-.02-.14-.03-.24-.04-.31h-.09c-.34.46-.64.85-.89,1.19-.25.34-.48.63-.69.87-.21.24-.39.44-.56.6-.17.16-.33.28-.49.37-.16.09-.32.15-.49.19-.17.03-.36.05-.56.05-.3,0-.55-.05-.76-.15l.39-1.67h.73c.02.25.11.38.28.38.06,0,.12-.02.18-.03.06-.02.13-.05.21-.11.08-.05.18-.14.3-.26.12-.12.28-.28.47-.49.19-.21.42-.47.69-.78.27-.31.6-.7.98-1.16Z"/><path class="cls-26" d="m121.53,203.9v-1.56h14.44v1.56h-14.44Zm21.29-10.82l2.52,3.69-.82.67-2.48-2.85h-.13l-2.48,2.85-.8-.67,2.62-3.69h1.57Zm-2.31,9c.09-.41.16-.76.21-1.04.04-.28.06-.52.06-.71,0-.18-.02-.33-.06-.45-.04-.12-.11-.21-.21-.28-.1-.07-.23-.11-.39-.14-.16-.03-.36-.05-.59-.06l.13-.62,2.86-.11h.69l-1.69,7.52c-.09.38-.15.71-.19,1-.04.29-.06.54-.06.74,0,.31.05.54.15.68.1.14.26.21.48.21.27,0,.54-.11.82-.34.28-.23.63-.57,1.05-1.04l.67.66c-.37.38-.7.71-.99.97-.29.27-.57.48-.83.64-.26.16-.52.28-.79.35-.26.07-.55.11-.86.11-.27,0-.51-.05-.72-.16-.21-.11-.38-.25-.52-.43-.14-.18-.25-.39-.32-.63-.07-.24-.11-.49-.11-.77s.03-.61.08-.99c.05-.38.14-.81.25-1.28l.88-3.83Z"/><text class="cls-32" transform="translate(160.58 209.98)"><tspan x="0" y="0">+</tspan></text><path class="cls-25" d="m189.06,201.6c.77-1.04,1.5-1.8,2.21-2.29.71-.48,1.42-.73,2.15-.73.57,0,1.05.04,1.43.13l-.56,2.62h-1.21c-.05-.33-.11-.58-.2-.76-.09-.18-.19-.3-.3-.38s-.27-.11-.45-.11c-.28,0-.59.12-.92.36-.33.24-.71.62-1.12,1.14-.41.52-.74,1.01-.99,1.49-.25.48-.45,1.08-.62,1.82l-1.11,5.07h-2.03l1.7-7.43c.11-.47.18-.83.21-1.09.03-.26.05-.47.05-.64,0-.31-.05-.54-.15-.68-.1-.14-.26-.21-.48-.21-.24,0-.5.1-.77.3s-.64.56-1.11,1.08l-.67-.66c.72-.75,1.32-1.28,1.8-1.6.48-.32,1.02-.47,1.61-.47.49,0,.88.16,1.17.49.29.32.43.75.43,1.27,0,.39-.07.79-.22,1.21l.15.06Z"/><path class="cls-25" d="m196.01,214.85c-.19-1.08-.35-2.02-.5-2.81-.14-.79-.27-1.46-.39-2.02-.12-.56-.22-1.01-.32-1.36-.1-.35-.19-.62-.28-.81-.09-.19-.18-.33-.28-.4-.09-.07-.2-.11-.3-.11-.1,0-.2.01-.28.04s-.17.08-.27.16c-.09.08-.19.19-.3.34-.11.15-.24.34-.39.57l-.66-.43c.25-.36.47-.66.68-.9.21-.24.41-.43.61-.57.2-.14.41-.24.62-.3.21-.06.44-.09.69-.09.21,0,.38.02.53.06.15.04.28.11.4.2.12.09.23.21.32.36.09.15.19.32.29.53.05.13.11.31.16.54.06.23.12.5.18.81.06.31.13.65.19,1.02.06.37.13.76.19,1.16.06.41.12.82.18,1.24.06.42.11.84.16,1.25.43-.56.81-1.12,1.15-1.7.34-.57.63-1.11.87-1.63.24-.51.42-.98.54-1.39.13-.42.19-.75.18-1.01,0-.25-.07-.43-.2-.54-.13-.11-.35-.17-.66-.19l.11-.55h2.44l.3.5c-.57,1.41-1.24,2.77-2,4.08s-1.62,2.58-2.58,3.81c-.42.5-.79.92-1.12,1.28-.33.36-.64.67-.92.93-.28.26-.54.47-.79.64-.24.17-.48.3-.71.4-.23.1-.45.17-.68.21-.23.04-.46.07-.71.08-.13,0-.29-.01-.47-.04-.19-.03-.35-.07-.49-.11l.43-1.87h.78v.05c0,.39.16.58.47.58.42,0,.84-.16,1.27-.48.43-.32.94-.84,1.55-1.54Z"/><path class="cls-25" d="m207.92,204.05c0,2.73.44,4.99,1.32,6.76s2.22,2.96,4.03,3.56l-.28.9c-2.29-.6-4.04-1.9-5.26-3.88s-1.83-4.4-1.83-7.22.61-5.23,1.83-7.22c1.22-2,2.97-3.29,5.26-3.9l.32.9c-1.83.6-3.18,1.78-4.06,3.52s-1.32,3.94-1.32,6.58Zm7.57-.15v-1.56h14.44v1.56h-14.44Zm20.44,6.28c-.17.81-.39,1.53-.66,2.16-.27.62-.6,1.15-1.01,1.58-.41.43-.9.75-1.47.97-.57.22-1.24.33-2.02.34-.23,0-.43,0-.58-.03-.15-.02-.29-.05-.42-.09l.27-1.03c.13.04.26.06.42.08s.31.02.47.02c.33,0,.63-.05.9-.15.27-.1.53-.28.76-.55s.45-.64.64-1.11c.2-.47.38-1.08.54-1.83l1.9-8.44c.09-.41.16-.76.21-1.04.04-.28.06-.52.06-.71,0-.18-.02-.33-.06-.45-.04-.12-.11-.21-.21-.28-.1-.07-.23-.11-.39-.14-.16-.03-.36-.05-.59-.06l.13-.62,2.86-.11h.67l-2.44,11.51Zm2.08-17.1l2.52,3.69-.82.67-2.48-2.85h-.13l-2.48,2.85-.8-.67,2.62-3.69h1.57Z"/><text class="cls-31" transform="translate(240.53 209.98)"><tspan x="0" y="0">)</tspan></text><path class="cls-26" d="m419.57,266.33c.57-.78,1.13-1.35,1.66-1.72.53-.36,1.07-.55,1.61-.55.43,0,.79.03,1.07.1l-.42,1.97h-.91c-.04-.25-.09-.44-.15-.57-.06-.13-.14-.23-.23-.28-.09-.05-.2-.08-.33-.08-.21,0-.44.09-.69.27-.25.18-.53.47-.84.85-.31.39-.56.76-.74,1.12-.18.36-.34.81-.46,1.36l-.84,3.81h-1.52l1.28-5.58c.08-.35.13-.62.16-.82.02-.19.04-.35.04-.48,0-.23-.04-.4-.11-.51-.08-.11-.2-.16-.36-.16-.18,0-.37.07-.58.22-.2.15-.48.42-.83.81l-.5-.49c.54-.56.99-.96,1.36-1.2.36-.24.77-.36,1.21-.36.37,0,.66.12.88.37.21.24.32.56.32.95,0,.29-.06.6-.17.91l.11.04Z"/><path class="cls-26" d="m424.6,273.23c-.08-.36-.15-.68-.2-.94-.06-.27-.11-.5-.16-.69-.05-.19-.1-.35-.15-.47-.05-.12-.1-.22-.15-.29-.05-.07-.1-.12-.16-.15-.06-.03-.13-.05-.2-.05-.07,0-.14.01-.2.04-.06.02-.13.07-.19.13-.07.06-.14.14-.22.25-.08.11-.17.25-.27.42l-.5-.32c.18-.26.34-.48.48-.67.14-.18.28-.32.42-.43.14-.11.28-.19.44-.23.15-.05.33-.07.53-.07.24,0,.43.05.58.15.15.1.28.25.37.45.1.2.18.44.25.73.06.29.13.62.21,1h.08c.26-.34.48-.63.67-.88.19-.25.36-.46.51-.63.15-.17.28-.31.4-.42.12-.11.23-.19.35-.25.11-.06.23-.1.35-.12.12-.02.25-.03.4-.03.22,0,.41.04.59.12l-.32,1.27h-.54c-.01-.19-.08-.28-.21-.28-.05,0-.1,0-.15.03-.06.02-.12.05-.2.1s-.17.12-.27.22c-.1.09-.22.21-.36.36-.14.15-.29.33-.47.55-.18.22-.38.47-.61.76.12.59.22,1.07.3,1.43.08.36.16.63.24.82.08.19.15.31.23.37.08.06.17.09.26.09.07,0,.14,0,.2-.03.06-.02.13-.05.19-.11.07-.06.14-.14.22-.25.08-.11.18-.26.29-.44l.48.32c-.19.28-.36.52-.5.7-.15.18-.29.32-.43.43-.14.1-.28.17-.43.21-.15.04-.31.05-.5.05-.16,0-.31-.02-.44-.07s-.24-.13-.34-.25c-.06-.07-.12-.17-.18-.29-.06-.12-.11-.26-.15-.4-.05-.14-.09-.29-.13-.44-.04-.15-.07-.3-.1-.43-.03-.13-.05-.25-.06-.36-.02-.11-.02-.18-.03-.24h-.07c-.26.34-.48.64-.67.9-.19.26-.36.48-.52.66-.15.18-.29.33-.42.45-.12.12-.25.21-.37.28-.12.07-.24.12-.37.14-.13.03-.27.04-.42.04-.22,0-.42-.04-.57-.12l.3-1.26h.55c.01.19.08.28.21.28.05,0,.09-.01.14-.03.05-.01.1-.04.16-.08.06-.04.14-.11.23-.19.09-.09.21-.21.35-.37.14-.16.32-.35.52-.59.21-.24.45-.53.74-.88Z"/><rect class="cls-9" x="464.88" y="255.6" width="22.68" height="23.52"/><path class="cls-27" d="m474.82,272.88c-.87,0-1.52-.27-1.95-.8-.43-.53-.64-1.33-.64-2.4,0-.58.06-1.29.19-2.14.13-.85.34-1.72.64-2.61.3-.89.68-1.68,1.14-2.36.47-.69,1-1.22,1.61-1.59.61-.37,1.26-.56,1.97-.56,1.7,0,2.55,1.08,2.55,3.23,0,.61-.07,1.34-.21,2.18-.14.85-.36,1.71-.65,2.59s-.68,1.66-1.13,2.33-.98,1.2-1.58,1.57-1.24.55-1.93.55Zm3.47-5.83h-4.22c-.28,1.27-.41,2.34-.41,3.21,0,.66.1,1.14.3,1.45.2.31.52.46.97.46.66,0,1.28-.44,1.87-1.32.59-.88,1.09-2.15,1.5-3.79Zm-4.01-.9h4.21c.28-1.24.41-2.3.41-3.19,0-.62-.1-1.08-.3-1.38-.2-.3-.51-.46-.93-.46-.69,0-1.32.43-1.9,1.3-.58.87-1.08,2.11-1.49,3.73Z"/><path class="cls-21" d="m121.64,395.28l.42,1.21c-2.44.8-4.24,2.37-5.42,4.7-1.17,2.33-1.76,5.26-1.76,8.78s.59,6.66,1.76,9.03c1.18,2.37,2.97,3.95,5.38,4.76l-.38,1.21c-3.05-.8-5.4-2.53-7.02-5.19-1.63-2.66-2.44-5.87-2.44-9.65s.81-6.98,2.45-9.64c1.63-2.67,3.97-4.4,7.01-5.2Zm36.26,0c3.04.8,5.38,2.54,7.01,5.2,1.64,2.66,2.45,5.88,2.45,9.64s-.81,6.99-2.44,9.65c-1.63,2.65-3.97,4.38-7.02,5.19l-.38-1.21c2.41-.8,4.2-2.39,5.38-4.76,1.17-2.37,1.76-5.38,1.76-9.03s-.59-6.45-1.76-8.78c-1.16-2.33-2.97-3.9-5.42-4.7l.42-1.21Z"/><path class="cls-23" d="m247.04,395.28l.42,1.21c-2.44.8-4.24,2.37-5.42,4.7-1.17,2.33-1.76,5.26-1.76,8.78s.59,6.66,1.76,9.03c1.18,2.37,2.97,3.95,5.38,4.76l-.38,1.21c-3.05-.8-5.4-2.53-7.02-5.19-1.63-2.66-2.44-5.87-2.44-9.65s.81-6.98,2.45-9.64c1.63-2.67,3.97-4.4,7.01-5.2Zm37.82,0c3.04.8,5.38,2.54,7.01,5.2,1.64,2.66,2.45,5.88,2.45,9.64s-.81,6.99-2.44,9.65c-1.63,2.65-3.97,4.38-7.02,5.19l-.38-1.21c2.41-.8,4.2-2.39,5.38-4.76,1.17-2.37,1.76-5.38,1.76-9.03s-.59-6.45-1.76-8.78c-1.16-2.33-2.97-3.9-5.42-4.7l.42-1.21Z"/><path class="cls-21" d="m374.72,395.28l.42,1.21c-2.44.8-4.24,2.37-5.42,4.7-1.17,2.33-1.76,5.26-1.76,8.78s.59,6.66,1.76,9.03c1.18,2.37,2.97,3.95,5.38,4.76l-.38,1.21c-3.05-.8-5.4-2.53-7.02-5.19-1.63-2.66-2.44-5.87-2.44-9.65s.81-6.98,2.45-9.64c1.63-2.67,3.97-4.4,7.01-5.2Zm142.58,0c3.04.8,5.38,2.54,7.01,5.2,1.64,2.66,2.45,5.88,2.45,9.64s-.81,6.99-2.44,9.65c-1.63,2.65-3.97,4.38-7.02,5.19l-.38-1.21c2.41-.8,4.2-2.39,5.38-4.76,1.17-2.37,1.76-5.38,1.76-9.03s-.59-6.45-1.76-8.78c-1.16-2.33-2.97-3.9-5.42-4.7l.42-1.21Z"/><path class="cls-23" d="m590.24,395.28l.42,1.21c-2.44.8-4.24,2.37-5.42,4.7-1.17,2.33-1.76,5.26-1.76,8.78s.59,6.66,1.76,9.03c1.18,2.37,2.97,3.95,5.38,4.76l-.38,1.21c-3.05-.8-5.4-2.53-7.02-5.19-1.63-2.66-2.44-5.87-2.44-9.65s.81-6.98,2.45-9.64c1.63-2.67,3.97-4.4,7.01-5.2Zm84.74,0c3.04.8,5.38,2.54,7.01,5.2,1.64,2.66,2.45,5.88,2.45,9.64s-.81,6.99-2.44,9.65c-1.63,2.65-3.97,4.38-7.02,5.19l-.38-1.21c2.41-.8,4.2-2.39,5.38-4.76,1.17-2.37,1.76-5.38,1.76-9.03s-.59-6.45-1.76-8.78c-1.16-2.33-2.97-3.9-5.42-4.7l.42-1.21Z"/><path class="cls-28" d="m33.03,408.15c1.02-1.39,2-2.4,2.95-3.05.94-.65,1.9-.97,2.87-.97.76,0,1.4.06,1.91.17l-.75,3.5h-1.61c-.06-.44-.15-.78-.27-1.02-.11-.24-.25-.41-.41-.5-.16-.09-.35-.14-.59-.14-.38,0-.78.16-1.23.48-.44.32-.94.83-1.49,1.52-.55.69-.99,1.35-1.32,1.99-.33.64-.6,1.44-.82,2.42l-1.49,6.77h-2.71l2.27-9.92c.15-.63.24-1.11.28-1.45.04-.34.06-.63.06-.86,0-.42-.07-.72-.2-.91-.14-.19-.35-.28-.64-.28-.32,0-.66.13-1.02.4-.36.27-.85.75-1.48,1.45l-.89-.88c.96-1,1.76-1.71,2.41-2.14.65-.42,1.36-.63,2.14-.63.66,0,1.18.22,1.56.65.38.43.57,1,.57,1.7,0,.52-.1,1.06-.3,1.61l.2.08Zm8.57-9.73l-3.93,3.39-.83-.94,2.5-2.17h-9.54v-1.47h9.54l-2.5-2.17.83-.94,3.93,3.39v.91Zm11.66,9.56v-2.08h19.27v2.08h-19.27Zm0,6.49v-2.08h19.27v2.08h-19.27Z"/><path class="cls-26" d="m90.65,408.15c1.02-1.39,2-2.4,2.95-3.05.94-.65,1.9-.97,2.87-.97.76,0,1.4.06,1.91.17l-.75,3.5h-1.61c-.06-.44-.15-.78-.27-1.02-.11-.24-.25-.41-.41-.5-.16-.09-.35-.14-.59-.14-.38,0-.78.16-1.23.48-.44.32-.94.83-1.49,1.52-.55.69-.99,1.35-1.32,1.99-.33.64-.6,1.44-.82,2.42l-1.49,6.77h-2.71l2.27-9.92c.15-.63.24-1.11.28-1.45.04-.34.06-.63.06-.86,0-.42-.07-.72-.2-.91-.14-.19-.35-.28-.64-.28-.32,0-.66.13-1.02.4-.36.27-.85.75-1.48,1.45l-.89-.88c.96-1,1.76-1.71,2.41-2.14.65-.42,1.36-.63,2.14-.63.66,0,1.18.22,1.56.65.38.43.57,1,.57,1.7,0,.52-.1,1.06-.3,1.61l.2.08Z"/><path class="cls-26" d="m99.71,420.31c-.14-.64-.26-1.2-.36-1.67-.1-.47-.2-.88-.29-1.22-.09-.34-.17-.62-.26-.83-.08-.21-.17-.38-.26-.51-.09-.13-.18-.22-.29-.27-.1-.05-.22-.08-.36-.09-.13,0-.25.02-.36.06-.11.04-.22.12-.34.22-.12.11-.25.26-.39.45-.14.19-.3.44-.49.74l-.88-.57c.31-.46.59-.86.85-1.18.25-.32.5-.58.74-.77.24-.19.5-.33.77-.41.27-.08.58-.13.93-.13.42,0,.76.09,1.03.27.27.18.49.45.66.8.18.35.32.78.43,1.3s.24,1.1.37,1.77h.15c.46-.6.85-1.12,1.19-1.57.34-.44.63-.81.9-1.12.26-.3.5-.55.71-.74.21-.19.41-.34.61-.44.2-.1.4-.17.61-.21.21-.04.44-.06.7-.06.38,0,.73.07,1.04.21l-.57,2.25h-.95c-.02-.33-.14-.49-.37-.49-.08,0-.18.02-.27.05-.1.03-.22.09-.35.18-.14.09-.3.22-.47.38-.18.16-.39.38-.63.64-.24.26-.52.58-.83.97-.31.38-.67.83-1.07,1.35.21,1.05.38,1.89.53,2.53.15.63.29,1.12.43,1.45.14.34.27.55.41.66s.29.15.47.15c.13,0,.25-.02.36-.05.11-.03.22-.1.34-.2.12-.1.25-.25.39-.45.14-.19.32-.45.51-.77l.86.56c-.34.5-.63.91-.89,1.23-.26.32-.51.57-.75.75-.24.18-.5.31-.75.37-.26.06-.56.1-.89.1-.29,0-.55-.04-.78-.12s-.43-.23-.59-.44c-.11-.13-.22-.3-.32-.52-.1-.22-.19-.45-.27-.7-.08-.25-.16-.51-.23-.78-.07-.27-.13-.52-.17-.76-.05-.24-.08-.45-.11-.63-.03-.19-.04-.33-.05-.42h-.13c-.46.61-.86,1.14-1.19,1.59-.34.45-.65.84-.92,1.17-.27.32-.52.59-.74.8-.22.21-.44.38-.65.5-.21.12-.43.21-.66.25-.22.05-.47.07-.75.07-.4,0-.74-.07-1.02-.21l.53-2.23h.97c.02.34.15.5.38.5.08,0,.17-.02.25-.05.08-.02.17-.07.28-.14.11-.07.24-.19.41-.34.16-.16.37-.37.62-.65.25-.28.56-.63.93-1.05.37-.42.8-.94,1.31-1.55Z"/><path class="cls-26" d="m125.03,411.22v-2.08h19.27v2.08h-19.27Zm28.51-14.44l3.36,4.93-1.1.89-3.32-3.8h-.17l-3.32,3.8-1.06-.89,3.5-4.93h2.1Zm-3.15,12.02c.13-.55.22-1.02.27-1.39.06-.38.09-.69.09-.95,0-.24-.03-.44-.08-.59-.05-.16-.14-.28-.27-.37-.13-.09-.3-.15-.52-.19-.21-.04-.48-.07-.79-.09l.17-.83,3.82-.14h.92l-2.25,10.04c-.11.5-.2.94-.26,1.33-.06.39-.09.71-.09.99,0,.42.07.72.2.91.14.19.35.28.64.28.35,0,.72-.15,1.1-.45.38-.3.84-.77,1.41-1.39l.89.88c-.49.51-.93.94-1.32,1.3-.39.35-.76.64-1.11.86-.35.22-.7.38-1.05.47-.35.09-.73.14-1.15.14-.37,0-.69-.07-.96-.21-.28-.14-.51-.33-.7-.57-.19-.24-.33-.52-.43-.84-.1-.32-.15-.66-.15-1.02s.04-.82.11-1.32c.07-.51.18-1.08.33-1.71l1.17-5.12Z"/><text class="cls-34" transform="translate(177.18 419.34)"><tspan x="0" y="0">+</tspan></text><path class="cls-25" d="m215.09,408.15c1.02-1.39,2-2.4,2.95-3.05.94-.65,1.9-.97,2.87-.97.76,0,1.4.06,1.91.17l-.75,3.5h-1.61c-.06-.44-.15-.78-.27-1.02-.11-.24-.25-.41-.41-.5-.16-.09-.35-.14-.59-.14-.38,0-.78.16-1.23.48-.44.32-.94.83-1.49,1.52-.55.69-.99,1.35-1.32,1.99-.33.64-.6,1.44-.82,2.42l-1.49,6.77h-2.71l2.27-9.92c.15-.63.24-1.11.28-1.45.04-.34.06-.63.06-.86,0-.42-.07-.72-.2-.91-.14-.19-.35-.28-.64-.28-.32,0-.66.13-1.02.4-.36.27-.85.75-1.48,1.45l-.89-.88c.96-1,1.76-1.71,2.41-2.14.65-.42,1.36-.63,2.14-.63.66,0,1.18.22,1.56.65.38.43.57,1,.57,1.7,0,.52-.1,1.06-.3,1.61l.2.08Z"/><path class="cls-25" d="m224.41,425.75c-.25-1.45-.47-2.7-.66-3.75-.19-1.05-.36-1.95-.52-2.7-.16-.74-.3-1.35-.43-1.81-.13-.46-.26-.83-.38-1.09-.12-.26-.25-.44-.37-.53-.13-.1-.26-.14-.41-.14-.14,0-.26.02-.38.05-.11.03-.23.1-.35.21-.12.11-.25.26-.39.45-.14.19-.31.45-.52.76l-.88-.57c.33-.48.63-.88.9-1.2.27-.32.55-.57.82-.76.27-.19.55-.32.83-.4.28-.08.59-.12.93-.12.27,0,.51.03.71.09.2.06.38.15.54.27.16.12.3.28.43.47.13.19.25.43.38.7.07.17.14.41.22.72.08.31.16.67.24,1.09.08.41.17.86.25,1.36.08.5.17,1.01.25,1.55.08.54.16,1.1.24,1.66.08.57.15,1.13.22,1.67.57-.75,1.09-1.5,1.54-2.27.46-.77.84-1.49,1.16-2.17.32-.68.56-1.3.73-1.86.17-.56.25-1.01.24-1.34,0-.34-.09-.58-.26-.72-.18-.14-.47-.23-.88-.25l.15-.73h3.26l.4.66c-.76,1.88-1.65,3.7-2.67,5.44-1.02,1.75-2.17,3.44-3.44,5.09-.56.66-1.06,1.23-1.5,1.71s-.86.89-1.23,1.24c-.38.35-.73.63-1.05.85-.32.22-.64.4-.94.53-.3.13-.61.23-.91.29-.3.06-.62.09-.94.11-.18,0-.39-.02-.63-.06-.25-.04-.47-.09-.66-.15l.57-2.5h1.04v.07c0,.52.21.78.63.78.56,0,1.12-.22,1.69-.65.57-.43,1.26-1.12,2.07-2.06Z"/><path class="cls-25" d="m250.46,411.22v-2.08h19.27v2.08h-19.27Zm27.26,8.39c-.23,1.08-.52,2.04-.88,2.88-.35.83-.81,1.54-1.35,2.1-.55.57-1.2,1-1.96,1.29-.76.29-1.66.44-2.69.45-.31,0-.57-.01-.77-.04-.2-.03-.39-.07-.56-.12l.36-1.38c.17.05.35.09.56.1s.41.02.63.02c.44,0,.84-.07,1.2-.2.36-.13.7-.38,1.02-.74.31-.36.6-.86.86-1.49.26-.63.5-1.45.72-2.45l2.53-11.26c.13-.55.22-1.02.27-1.39.06-.38.09-.69.09-.95,0-.24-.03-.44-.08-.59-.05-.16-.14-.28-.27-.37-.13-.09-.3-.15-.52-.19-.21-.04-.48-.07-.79-.09l.17-.83,3.82-.14h.89l-3.25,15.36Zm2.81-22.83l3.36,4.93-1.1.89-3.32-3.8h-.17l-3.32,3.8-1.06-.89,3.5-4.93h2.1Z"/><text class="cls-34" transform="translate(305.85 419.34)"><tspan x="0" y="0">=</tspan></text><path class="cls-26" d="m340.94,411.22v-2.08h19.27v2.08h-19.27Zm47.78-1.56c.5.38.9.82,1.21,1.35.31.52.56,1.25.74,2.17l.36,1.81c.11.57.24,1.09.39,1.55.15.46.32.82.52,1.1.2.27.43.47.69.61.26.14.63.25,1.12.33l-.16.77h-4.33c-.33-.93-.63-2.03-.89-3.32l-.69-3.32c-.11-.57-.25-1.06-.41-1.45-.16-.39-.35-.69-.58-.91-.22-.21-.48-.35-.78-.42-.3-.07-.66-.1-1.09-.1h-1.78l-1.1,4.96c-.09.41-.16.73-.2.97-.04.24-.07.49-.09.76-.03.27-.04.5-.04.71,0,.32.05.58.16.76.1.18.26.32.47.4.21.08.57.15,1.08.19l-.17.77h-6.43l.17-.77c.4-.06.69-.16.89-.31.2-.14.36-.34.5-.59.14-.25.26-.56.38-.92.11-.36.29-1.06.52-2.09l2.66-12.05c.23-1.04.34-1.87.34-2.47,0-.51-.12-.87-.36-1.06-.24-.2-.63-.31-1.17-.34l.17-.77h6.96c1.11,0,2.01.07,2.71.2.7.13,1.3.33,1.79.59.5.26.91.6,1.24,1.01.33.41.58.88.75,1.39.17.52.25,1.07.25,1.65,0,1.61-.49,2.97-1.47,4.1-.98,1.13-2.42,1.98-4.33,2.57v.17Zm-3.54-1.17c1.51,0,2.71-.2,3.58-.61s1.57-1.07,2.08-2c.51-.93.77-1.93.77-3,0-.45-.04-.85-.13-1.2-.08-.35-.19-.64-.33-.87-.14-.23-.31-.43-.52-.61-.21-.18-.47-.33-.78-.46-.31-.13-.68-.22-1.09-.28-.41-.06-.97-.09-1.68-.09-.55,0-1.14.02-1.75.06l-2,9.06h1.85Zm22.83-.34c-.02-.79-.09-1.37-.2-1.72-.11-.35-.29-.62-.53-.8-.25-.18-.59-.27-1.04-.27-1.05,0-2,.42-2.84,1.26-.84.84-1.53,2.03-2.06,3.57-.53,1.54-.8,3.02-.8,4.44,0,1.06.21,1.85.63,2.37.42.52,1.04.77,1.88.77.95,0,1.77-.18,2.46-.54.69-.36,1.43-.93,2.2-1.7l.95.95c-.98,1.08-1.97,1.88-2.96,2.38-1,.5-2.07.75-3.21.75-1.51,0-2.66-.45-3.44-1.35-.78-.9-1.17-2.2-1.17-3.91,0-1.12.21-2.34.63-3.68.42-1.33,1.03-2.51,1.83-3.52.8-1.01,1.74-1.77,2.82-2.27,1.07-.5,2.22-.75,3.44-.75,1.39,0,2.66.16,3.83.47l-.77,3.54h-1.64Zm9.78,11.47c-1.62,0-2.87-.45-3.76-1.36-.89-.91-1.34-2.21-1.34-3.91,0-.83.13-1.8.38-2.89.32-1.48.87-2.77,1.63-3.88.76-1.11,1.7-1.95,2.82-2.54,1.12-.59,2.34-.88,3.68-.88,1.67,0,2.94.46,3.82,1.37.88.91,1.31,2.22,1.31,3.92,0,1.21-.21,2.5-.63,3.88-.42,1.38-1,2.53-1.74,3.47-.74.94-1.61,1.65-2.64,2.12-1.02.47-2.2.71-3.52.71Zm-2.36-4.6c0,1.15.24,1.99.71,2.54.47.55,1.19.82,2.15.82,1.02,0,1.93-.46,2.72-1.38.79-.92,1.42-2.2,1.88-3.86.46-1.65.69-3.11.69-4.36,0-1.13-.22-1.97-.66-2.54-.44-.57-1.12-.85-2.05-.85-1.08,0-2.03.45-2.84,1.36-.81.91-1.44,2.21-1.91,3.9-.46,1.69-.7,3.14-.7,4.36Zm24.41-6.82c-.11-.93-.42-1.63-.92-2.11-.5-.48-1.28-.72-2.34-.72-.82,0-1.49.21-2,.63-.51.42-.77.98-.77,1.67,0,.38.07.71.2.99.13.29.39.6.79.95.4.34,1.01.77,1.85,1.27.66.4,1.18.76,1.58,1.09.4.33.71.65.94.98.23.32.4.66.5,1.02.1.36.16.8.16,1.31,0,.93-.25,1.72-.74,2.39-.5.66-1.17,1.16-2.02,1.48-.85.32-1.82.48-2.9.48-.87,0-1.72-.07-2.55-.2-.83-.13-1.76-.35-2.78-.66l.75-3.41h1.22c.04,1,.32,1.76.84,2.27.52.51,1.35.77,2.49.77.99,0,1.77-.22,2.32-.66.56-.44.84-1.07.84-1.89,0-.47-.08-.87-.23-1.21-.16-.34-.41-.66-.77-.98-.35-.31-.92-.7-1.69-1.17-.81-.49-1.45-.93-1.9-1.33-.45-.4-.8-.83-1.02-1.29-.23-.46-.34-1-.34-1.6,0-.82.22-1.55.66-2.17.44-.62,1.08-1.1,1.9-1.43.82-.33,1.78-.5,2.88-.5.97,0,1.85.06,2.65.17.8.11,1.59.31,2.39.59l-.7,3.29h-1.27Zm9.42,11.4c-1.55,0-2.71-.47-3.47-1.42-.76-.95-1.14-2.37-1.14-4.27,0-1.03.11-2.3.34-3.82.23-1.51.61-3.06,1.13-4.64.53-1.58,1.2-2.98,2.03-4.21.83-1.23,1.78-2.17,2.86-2.83,1.08-.66,2.25-.99,3.51-.99,3.02,0,4.54,1.92,4.54,5.76,0,1.08-.12,2.38-.37,3.89-.25,1.51-.63,3.04-1.17,4.61s-1.2,2.95-2.02,4.15c-.81,1.2-1.75,2.14-2.82,2.79-1.06.66-2.21.99-3.44.99Zm6.18-10.37h-7.51c-.49,2.26-.74,4.17-.74,5.71,0,1.17.18,2.03.53,2.57.35.55.93.82,1.72.82,1.17,0,2.28-.78,3.32-2.35,1.05-1.57,1.94-3.82,2.67-6.75Zm-7.13-1.6h7.49c.49-2.2.74-4.09.74-5.68,0-1.1-.18-1.91-.53-2.46-.35-.54-.91-.81-1.66-.81-1.22,0-2.35.77-3.39,2.32-1.04,1.54-1.92,3.75-2.65,6.63Zm33.47,3.6v9.01h-2.22v-9.01h-8.53v-2.08h8.53v-9.01h2.22v9.01h8.53v2.08h-8.53Zm23.12-.34c-1.16.56-2.53,1.14-4.13,1.72l-.38-1.3c1.68-.56,3.3-1.21,4.85-1.96l.97-4.43c.58-2.66,1.41-4.64,2.47-5.93,1.06-1.29,2.33-1.94,3.79-1.94.7,0,1.27.15,1.72.45.45.3.77.69.97,1.19.2.5.3,1.05.3,1.67,0,.97-.22,1.98-.67,3.04-.45,1.06-1.22,2.11-2.32,3.16-1.1,1.05-2.69,2.12-4.77,3.21l-1,4.52c-.23,1.03-.34,1.8-.34,2.32,0,.42.08.72.23.91.15.19.37.28.66.28s.56-.07.82-.2c.27-.14.54-.33.81-.59.28-.26.55-.56.83-.92.28-.35.59-.79.95-1.31l1.11.81c-.72.99-1.35,1.75-1.88,2.27-.53.52-1.1.94-1.71,1.26-.61.32-1.26.48-1.96.48-.78,0-1.39-.24-1.81-.71-.43-.47-.64-1.12-.64-1.93s.15-1.8.44-3.04l.69-3.04Zm3.14-2.64c1.73-1.04,3.06-2.29,4-3.75.93-1.45,1.4-2.96,1.4-4.53,0-.53-.1-.94-.31-1.24-.2-.29-.49-.44-.87-.44-.51,0-.96.2-1.34.59-.38.4-.73,1-1.03,1.81-.31.81-.61,1.89-.9,3.22l-.95,4.32Zm28.61-11.45l3.36,4.93-1.1.89-3.32-3.8h-.17l-3.32,3.8-1.06-.89,3.5-4.93h2.1Zm-3.15,12.02c.13-.55.22-1.02.27-1.39.06-.38.09-.69.09-.95,0-.24-.03-.44-.08-.59-.05-.16-.14-.28-.27-.37-.13-.09-.3-.15-.52-.19-.21-.04-.48-.07-.79-.09l.17-.83,3.82-.14h.92l-2.25,10.04c-.11.5-.2.94-.26,1.33-.06.39-.09.71-.09.99,0,.42.07.72.2.91.14.19.35.28.64.28.35,0,.72-.15,1.1-.45.38-.3.84-.77,1.41-1.39l.89.88c-.49.51-.93.94-1.32,1.3-.39.35-.76.64-1.11.86-.35.22-.7.38-1.05.47-.35.09-.73.14-1.15.14-.37,0-.69-.07-.96-.21-.28-.14-.51-.33-.7-.57-.19-.24-.33-.52-.43-.84-.1-.32-.15-.66-.15-1.02s.04-.82.11-1.32c.07-.51.18-1.08.33-1.71l1.17-5.12Z"/><path class="cls-25" d="m549.43,411.22v-2.08h19.27v2.08h-19.27Zm54.84-1.56c.5.38.9.82,1.21,1.35.31.52.56,1.25.74,2.17l.36,1.81c.11.57.24,1.09.39,1.55.15.46.32.82.52,1.1.2.27.43.47.69.61.26.14.63.25,1.12.33l-.16.77h-4.33c-.33-.93-.63-2.03-.89-3.32l-.69-3.32c-.11-.57-.25-1.06-.41-1.45-.16-.39-.35-.69-.58-.91-.22-.21-.48-.35-.78-.42-.3-.07-.66-.1-1.09-.1h-1.78l-1.1,4.96c-.09.41-.16.73-.2.97-.04.24-.07.49-.09.76-.03.27-.04.5-.04.71,0,.32.05.58.16.76.1.18.26.32.47.4.21.08.57.15,1.08.19l-.17.77h-6.43l.17-.77c.4-.06.69-.16.89-.31.2-.14.36-.34.5-.59.14-.25.26-.56.38-.92.11-.36.29-1.06.52-2.09l2.66-12.05c.23-1.04.34-1.87.34-2.47,0-.51-.12-.87-.36-1.06-.24-.2-.63-.31-1.17-.34l.17-.77h6.96c1.11,0,2.01.07,2.71.2.7.13,1.3.33,1.79.59.5.26.91.6,1.24,1.01.33.41.58.88.75,1.39.17.52.25,1.07.25,1.65,0,1.61-.49,2.97-1.47,4.1-.98,1.13-2.42,1.98-4.33,2.57v.17Zm-3.54-1.17c1.51,0,2.71-.2,3.58-.61s1.57-1.07,2.08-2c.51-.93.77-1.93.77-3,0-.45-.04-.85-.13-1.2-.08-.35-.19-.64-.33-.87-.14-.23-.31-.43-.52-.61-.21-.18-.47-.33-.78-.46-.31-.13-.68-.22-1.09-.28-.41-.06-.97-.09-1.68-.09-.55,0-1.14.02-1.75.06l-2,9.06h1.85Zm22.85-.3c-.11-.93-.42-1.63-.92-2.11-.5-.48-1.28-.72-2.34-.72-.82,0-1.49.21-2,.63-.51.42-.77.98-.77,1.67,0,.38.07.71.2.99.13.29.39.6.79.95.4.34,1.01.77,1.85,1.27.66.4,1.18.76,1.58,1.09.4.33.71.65.94.98.23.32.4.66.5,1.02.1.36.16.8.16,1.31,0,.93-.25,1.72-.74,2.39-.5.66-1.17,1.16-2.02,1.48-.85.32-1.82.48-2.9.48-.87,0-1.72-.07-2.55-.2-.83-.13-1.76-.35-2.78-.66l.75-3.41h1.22c.04,1,.32,1.76.84,2.27.52.51,1.35.77,2.49.77.99,0,1.77-.22,2.32-.66.56-.44.84-1.07.84-1.89,0-.47-.08-.87-.23-1.21-.16-.34-.41-.66-.77-.98-.35-.31-.92-.7-1.69-1.17-.81-.49-1.45-.93-1.9-1.33-.45-.4-.8-.83-1.02-1.29-.23-.46-.34-1-.34-1.6,0-.82.22-1.55.66-2.17.44-.62,1.08-1.1,1.9-1.43.82-.33,1.78-.5,2.88-.5.97,0,1.85.06,2.65.17.8.11,1.59.31,2.39.59l-.7,3.29h-1.27Zm6.81.61c.24-1.04.36-1.83.36-2.35,0-.47-.11-.79-.34-.95-.22-.17-.66-.26-1.32-.28l.17-.83,3.82-.14h.92l-2.25,10.04c-.23,1.02-.34,1.79-.34,2.32,0,.42.07.72.2.91.14.19.35.28.64.28.31,0,.65-.13,1-.38.35-.26.86-.74,1.5-1.46l.89.88c-1.02,1.07-1.85,1.8-2.49,2.19-.64.39-1.35.58-2.14.58-.68,0-1.22-.25-1.63-.74-.41-.5-.61-1.13-.61-1.9s.15-1.8.44-3.04l1.17-5.12Zm5.04-10.54l-.72,3.04h-2.77l.72-3.04h2.77Zm5.59,11.17c.23-1,.34-1.77.34-2.32,0-.42-.07-.72-.2-.91-.14-.19-.35-.28-.64-.28-.32,0-.66.13-1.02.4-.36.27-.85.75-1.48,1.45l-.89-.88c.96-1,1.76-1.71,2.39-2.14.64-.42,1.36-.63,2.16-.63.66,0,1.18.22,1.56.65.38.43.57,1,.57,1.7,0,.55-.13,1.17-.38,1.85l.19.06c1.02-1.44,1.99-2.51,2.92-3.2.92-.69,1.87-1.04,2.86-1.04s1.72.28,2.24.84c.52.56.78,1.33.78,2.32,0,.66-.15,1.59-.45,2.8l-1.02,4.1c-.28,1.14-.42,1.94-.42,2.41,0,.42.07.72.2.91.14.19.35.28.64.28.31,0,.65-.13,1-.38.35-.26.86-.74,1.5-1.46l.89.88c-.9.96-1.68,1.66-2.35,2.1-.67.44-1.43.66-2.28.66-.68,0-1.22-.24-1.63-.73-.41-.48-.61-1.1-.61-1.85,0-.68.17-1.67.52-2.99l.69-2.71c.25-.98.41-1.71.49-2.17.08-.47.12-.85.12-1.14,0-.72-.12-1.24-.36-1.56-.24-.32-.63-.48-1.17-.48-.44,0-.91.17-1.42.52-.51.35-1.04.88-1.61,1.58-.57.7-1.02,1.39-1.37,2.05-.34.66-.63,1.48-.84,2.45l-1.49,6.77h-2.71l2.28-9.92Zm20.53,10.17c-1.55,0-2.71-.47-3.47-1.42-.76-.95-1.14-2.37-1.14-4.27,0-1.03.11-2.3.34-3.82.23-1.51.61-3.06,1.13-4.64.53-1.58,1.2-2.98,2.03-4.21.83-1.23,1.78-2.17,2.86-2.83,1.08-.66,2.25-.99,3.51-.99,3.02,0,4.54,1.92,4.54,5.76,0,1.08-.12,2.38-.37,3.89-.25,1.51-.63,3.04-1.17,4.61-.53,1.56-1.2,2.95-2.02,4.15-.81,1.2-1.75,2.14-2.82,2.79-1.06.66-2.21.99-3.44.99Zm6.18-10.37h-7.51c-.49,2.26-.74,4.17-.74,5.71,0,1.17.18,2.03.53,2.57.35.55.93.82,1.72.82,1.17,0,2.28-.78,3.32-2.35,1.05-1.57,1.94-3.82,2.67-6.75Zm-7.13-1.6h7.49c.49-2.2.74-4.09.74-5.68,0-1.1-.18-1.91-.53-2.46-.35-.54-.91-.81-1.66-.81-1.22,0-2.35.77-3.39,2.32-1.04,1.54-1.92,3.75-2.65,6.63Zm32.39,11.98c-.23,1.08-.52,2.04-.88,2.88-.35.83-.81,1.54-1.35,2.1-.55.57-1.2,1-1.96,1.29-.76.29-1.66.44-2.69.45-.31,0-.57-.01-.77-.04-.2-.03-.39-.07-.56-.12l.36-1.38c.17.05.35.09.56.1.2.02.41.02.63.02.44,0,.84-.07,1.2-.2.36-.13.7-.38,1.02-.74.31-.36.6-.86.86-1.49.26-.63.5-1.45.72-2.45l2.53-11.26c.13-.55.22-1.02.27-1.39.06-.38.09-.69.09-.95,0-.24-.03-.44-.08-.59-.05-.16-.14-.28-.27-.37-.13-.09-.3-.15-.52-.19-.21-.04-.48-.07-.79-.09l.17-.83,3.82-.14h.89l-3.25,15.36Zm2.81-22.83l3.36,4.93-1.1.89-3.32-3.8h-.17l-3.32,3.8-1.06-.89,3.5-4.93h2.1Z"/></svg>