<?xml version="1.0" encoding="UTF-8" standalone="no"?>
<!-- Created with Inkscape (http://www.inkscape.org/) -->

<svg
   xmlns:dc="http://purl.org/dc/elements/1.1/"
   xmlns:cc="http://creativecommons.org/ns#"
   xmlns:rdf="http://www.w3.org/1999/02/22-rdf-syntax-ns#"
   xmlns:svg="http://www.w3.org/2000/svg"
   xmlns="http://www.w3.org/2000/svg"
   xmlns:sodipodi="http://sodipodi.sourceforge.net/DTD/sodipodi-0.dtd"
   xmlns:inkscape="http://www.inkscape.org/namespaces/inkscape"
   id="svg2"
   sodipodi:version="0.32"
   inkscape:version="0.47 r22583"
   width="650"
   height="160"
   version="1.0"
   sodipodi:docname="Italian_Army_heraldry_motto.svg"
   inkscape:output_extension="org.inkscape.output.svg.inkscape"
   sodipodi:modified="true">
  <title
     id="title3179">Lista per stemmi dell'Esercito Italiano</title>
  <metadata
     id="metadata7">
    <rdf:RDF>
      <cc:Work
         rdf:about="">
        <dc:format>image/svg+xml</dc:format>
        <dc:type
           rdf:resource="http://purl.org/dc/dcmitype/StillImage" />
        <dc:title>Lista per stemmi dell'Esercito Italiano</dc:title>
        <dc:creator>
          <cc:Agent>
            <dc:title>https://commons.wikimedia.org/wiki/User:GJo</dc:title>
          </cc:Agent>
        </dc:creator>
        <dc:date>28-SEPT-2013</dc:date>
        <dc:language>it, en</dc:language>
        <dc:subject>
          <rdf:Bag>
            <rdf:li>Lista</rdf:li>
            <rdf:li>motto</rdf:li>
            <rdf:li>Esercito Italiano</rdf:li>
            <rdf:li>heraldry motto</rdf:li>
            <rdf:li>Italian Army</rdf:li>
          </rdf:Bag>
        </dc:subject>
        <cc:license
           rdf:resource="http://creativecommons.org/licenses/publicdomain/" />
      </cc:Work>
      <cc:License
         rdf:about="http://creativecommons.org/licenses/publicdomain/">
        <cc:permits
           rdf:resource="http://creativecommons.org/ns#Reproduction" />
        <cc:permits
           rdf:resource="http://creativecommons.org/ns#Distribution" />
        <cc:permits
           rdf:resource="http://creativecommons.org/ns#DerivativeWorks" />
      </cc:License>
    </rdf:RDF>
  </metadata>
  <defs
     id="defs5">
    <inkscape:perspective
       sodipodi:type="inkscape:persp3d"
       inkscape:vp_x="0 : 430 : 1"
       inkscape:vp_y="0 : 1000 : 0"
       inkscape:vp_z="640 : 430 : 1"
       inkscape:persp3d-origin="320 : 286.66667 : 1"
       id="perspective371" />
    <inkscape:perspective
       id="perspective371-0"
       inkscape:persp3d-origin="320 : 286.66667 : 1"
       inkscape:vp_z="640 : 430 : 1"
       inkscape:vp_y="0 : 1000 : 0"
       inkscape:vp_x="0 : 430 : 1"
       sodipodi:type="inkscape:persp3d" />
  </defs>
  <sodipodi:namedview
     inkscape:window-height="785"
     inkscape:window-width="1280"
     inkscape:pageshadow="2"
     inkscape:pageopacity="0.0"
     guidetolerance="10.0"
     gridtolerance="10.0"
     objecttolerance="10.0"
     borderopacity="1.0"
     bordercolor="#666666"
     pagecolor="#ffffff"
     id="base"
     inkscape:zoom="1.9113496"
     inkscape:cx="318.62304"
     inkscape:cy="83.710486"
     inkscape:window-x="0"
     inkscape:window-y="0"
     inkscape:current-layer="svg2"
     inkscape:showpageshadow="false"
     width="640px"
     height="860px"
     showgrid="false"
     inkscape:window-maximized="0" />
  <g
     id="g2838"
     transform="translate(-0.9765,-705.33314)">
    <path
       sodipodi:nodetypes="ccccccssssssssscccccz"
       id="path6518"
       d="m 319.9844,856.82614 c 97.0865,1.2e-4 195.3868,-10.80106 224.7031,-45.59375 -0.9094,-8.53566 -1.0063,-19.62058 -2.9375,-28.15625 25.0976,9.56552 75.0808,-14.85279 92.1875,-31 -14.5646,1.08709 -29.5664,1.30732 -44.8125,1.03125 10.936,-13.82261 27.0367,-25.5768 32.5313,-39.6875 0,0 -26.5988,18.77817 -47.9063,25.59375 -24.2771,7.7655 -51.1907,9.565 -67.0937,16.65625 -10.3118,4.59808 -10.1826,13.24851 -8.4375,16.125 4.8883,8.05782 9.7187,18.43751 9.7187,18.4375 -41.2726,17.0695 -121.028,26.62523 -187.9531,26.625 -66.9242,-2.3e-4 -146.6816,-9.55592 -187.9531,-26.625 -10e-5,10e-6 4.8616,-10.37968 9.75,-18.4375 1.745,-2.87649 1.843,-11.52692 -8.4688,-16.125 -15.9031,-7.09125 -42.816599,-8.89075 -67.0937,-16.65625 -21.3076,-6.81558 -47.875,-25.59375 -47.875,-25.59375 5.4945,14.1107 21.5952,25.86489 32.5312,39.6875 -15.2462,0.27607 -30.2479,0.0558 -44.8125,-1.03125 17.1066,16.14721 67.0899,40.56552 92.1875,31 -1.9312,8.53567 -2.0593,19.62059 -2.968699,28.15625 C 124.5972,846.02465 222.898,856.82601 319.9844,856.82614 z"
       style="fill:#d4a110;fill-opacity:1;fill-rule:evenodd;stroke:#000000;stroke-width:1px;stroke-linecap:butt;stroke-linejoin:miter;stroke-opacity:1" />
    <path
       sodipodi:nodetypes="cssc"
       id="path6523"
       d="m 131.9766,790.20639 c -8.3863,-3.36091 -34.8333,-17.69188 -30.6643,-25.57495 2.6943,-5.09459 12.7629,-2.97451 21.6225,1.0913 7.2187,3.31275 17.1681,9.00652 19.0925,5.31044"
       style="fill:none;stroke:#000000;stroke-width:1px;stroke-linecap:butt;stroke-linejoin:miter;stroke-opacity:1" />
    <path
       sodipodi:nodetypes="cc"
       id="path6525"
       d="m 100.9922,765.43165 c -0.9372,6.01735 -1.3873,11.95352 -2.8168,18.05292"
       style="fill:none;stroke:#000000;stroke-width:1px;stroke-linecap:butt;stroke-linejoin:miter;stroke-opacity:1" />
    <path
       style="fill:none;stroke:#000000;stroke-width:1px;stroke-linecap:butt;stroke-linejoin:miter;stroke-opacity:1"
       d="m 508.0258,790.20639 c 8.3863,-3.36091 34.8333,-17.69188 30.6643,-25.57495 -2.6943,-5.09459 -12.7629,-2.97451 -21.6225,1.0913 -7.2187,3.31275 -17.1681,9.00652 -19.0925,5.31044"
       id="path6533"
       sodipodi:nodetypes="cssc" />
    <path
       style="fill:none;stroke:#000000;stroke-width:1px;stroke-linecap:butt;stroke-linejoin:miter;stroke-opacity:1"
       d="m 539.0102,765.43165 c 0.9372,6.01735 1.3873,11.95352 2.8168,18.05292"
       id="path6535"
       sodipodi:nodetypes="cc" />
  </g>
</svg>
